<?xml version="1.0" standalone="no"?>
<!DOCTYPE svg PUBLIC "-//W3C//DTD SVG 20010904//EN"
 "http://www.w3.org/TR/2001/REC-SVG-20010904/DTD/svg10.dtd">
<svg version="1.0" xmlns="http://www.w3.org/2000/svg"
 width="3040.000000pt" height="3040.000000pt" viewBox="0 0 3040.000000 3040.000000"
 preserveAspectRatio="xMidYMid meet">
<metadata>
Created by potrace 1.11, written by Peter Selinger 2001-2013
</metadata>
<g transform="translate(0.000000,3040.000000) scale(0.100000,-0.100000)"
fill="#000000" stroke="none">
<path d="M1417 18374 c-1 -1 -38 -4 -82 -8 -44 -3 -109 -13 -145 -21 -36 -9
-75 -18 -88 -20 -12 -3 -53 -17 -90 -31 -37 -14 -76 -28 -87 -31 -11 -4 -22
-9 -25 -12 -3 -3 -33 -19 -67 -35 -35 -16 -63 -33 -63 -37 0 -4 -8 -9 -17 -13
-18 -6 -48 -23 -69 -41 -7 -5 -27 -21 -46 -35 -44 -32 -195 -184 -239 -240
-102 -130 -217 -371 -244 -510 -20 -106 -36 -207 -36 -227 1 -28 0 -84 -1 -95
-2 -25 14 -203 19 -211 3 -4 7 -26 10 -49 10 -90 95 -311 158 -413 14 -22 28
-47 32 -55 4 -8 12 -20 17 -27 19 -22 31 -37 56 -73 49 -70 283 -290 309 -290
13 0 71 -62 71 -77 0 -8 6 -21 14 -28 15 -15 65 -141 91 -228 81 -274 37 -576
-124 -852 -19 -33 -40 -63 -45 -67 -6 -4 -7 -8 -3 -8 4 0 3 -6 -3 -12 -51 -61
-63 -76 -78 -100 -9 -16 -22 -28 -28 -28 -7 0 -14 -3 -16 -8 -1 -4 -23 -23
-48 -42 -191 -148 -355 -385 -438 -635 -101 -303 -84 -663 44 -953 13 -29 24
-56 24 -60 1 -4 7 -13 13 -21 7 -8 19 -28 27 -45 14 -29 68 -115 80 -126 3 -3
24 -30 47 -60 85 -111 220 -228 360 -311 77 -45 230 -115 273 -124 8 -2 40
-10 70 -19 111 -31 186 -40 340 -40 223 0 391 37 580 127 64 30 190 103 200
116 3 3 31 25 62 49 73 56 191 179 250 263 26 36 60 72 75 80 15 7 30 17 33
20 12 15 200 99 255 114 142 39 179 45 316 46 165 2 308 -32 478 -113 63 -31
160 -86 171 -98 3 -3 25 -18 49 -35 24 -16 51 -41 60 -55 20 -31 27 -40 95
-120 51 -61 131 -136 180 -169 12 -8 23 -18 26 -21 12 -14 100 -68 165 -100
39 -19 72 -38 75 -41 3 -3 34 -15 70 -28 36 -12 72 -25 80 -28 17 -7 21 -8 65
-18 136 -31 230 -42 360 -39 77 1 151 4 165 7 14 3 41 8 60 11 19 3 53 11 75
16 22 6 45 12 50 13 53 13 135 44 135 50 0 5 4 6 9 2 5 -3 12 -1 16 5 3 5 12
10 20 10 12 0 166 82 190 102 6 4 38 28 72 53 133 98 266 250 355 405 49 86
118 244 118 269 0 6 6 30 14 53 8 24 17 61 21 83 3 23 8 52 10 65 5 22 17 177
16 205 -2 98 -15 203 -36 295 -3 14 -8 36 -11 50 -23 118 -143 358 -237 477
-71 90 -232 238 -307 283 -94 56 -146 85 -150 85 -3 1 -16 7 -30 15 -14 8 -29
15 -35 17 -5 1 -50 16 -100 33 -99 35 -195 57 -282 66 -66 6 -219 7 -278 0
-76 -8 -140 -17 -160 -24 -11 -3 -24 -7 -30 -8 -40 -7 -164 -48 -182 -60 -13
-8 -23 -12 -23 -9 0 10 -175 -87 -248 -138 -82 -56 -240 -207 -293 -279 -55
-75 -233 -180 -402 -237 -45 -16 -85 -29 -89 -30 -5 0 -9 -1 -10 -2 -81 -24
-285 -31 -404 -14 -145 22 -281 73 -417 157 -80 49 -107 70 -107 85 0 4 -27
44 -60 88 -68 89 -184 206 -277 277 -34 26 -67 58 -75 72 -156 292 -191 410
-192 636 0 90 7 183 15 200 1 3 3 10 4 15 12 65 52 178 87 250 45 91 98 175
110 175 6 0 39 20 75 45 35 25 66 45 67 45 9 0 78 62 161 146 83 83 195 228
195 252 0 6 3 12 8 14 23 10 110 222 141 344 31 125 33 140 37 304 4 197 -24
366 -86 515 -35 85 -110 228 -122 233 -5 2 -8 10 -8 18 0 8 -4 14 -10 14 -5 0
-10 5 -10 11 0 14 -78 110 -150 184 -123 126 -258 224 -404 293 -123 57 -280
101 -421 118 -55 6 -193 12 -198 8z"/>
<path d="M5008 18265 c-2 -2 -43 -5 -93 -9 -49 -3 -99 -7 -110 -10 -80 -17
-156 -37 -193 -50 -23 -8 -45 -15 -47 -15 -3 -1 -19 -8 -35 -16 -17 -9 -30
-13 -30 -11 0 11 -216 -112 -246 -139 -6 -5 -22 -17 -34 -25 -59 -39 -192
-170 -249 -245 -17 -22 -35 -45 -41 -52 -5 -7 -10 -16 -10 -22 0 -5 -3 -11 -7
-13 -14 -6 -53 -67 -53 -82 0 -8 -4 -16 -8 -18 -19 -8 -111 -233 -126 -308 -2
-14 -9 -45 -15 -70 -23 -102 -31 -299 -17 -415 9 -72 33 -198 43 -225 4 -8 7
-17 8 -20 6 -23 32 -93 48 -130 11 -25 21 -50 22 -56 2 -6 15 -29 29 -52 14
-23 26 -44 26 -47 0 -7 60 -97 70 -105 3 -3 17 -21 30 -40 14 -19 34 -45 45
-57 11 -12 25 -28 31 -35 74 -87 256 -222 379 -282 98 -48 109 -53 170 -75 35
-12 141 -41 170 -46 11 -2 38 -7 60 -11 51 -9 344 -10 409 -1 71 9 201 44 276
74 72 28 213 98 246 122 12 9 32 23 44 31 112 74 255 219 345 350 100 147 176
328 211 505 18 93 25 334 12 425 -10 65 -19 113 -25 130 -3 8 -7 28 -9 43 -2
16 -9 38 -15 50 -7 12 -13 28 -14 37 -1 8 -6 26 -12 40 -19 43 -36 85 -38 90
0 3 -9 21 -20 40 -11 19 -19 37 -20 40 0 3 -31 52 -69 109 -124 184 -313 351
-512 452 -52 26 -94 46 -94 44 0 -2 -19 5 -42 15 -43 18 -190 59 -238 65 -95
13 -247 25 -252 20z"/>
<path d="M9040 17192 c-7 -3 -10 -737 -10 -2178 0 -2063 1 -2174 18 -2175 19
-1 126 -1 157 0 20 1 20 1 20 2178 l0 2177 -88 1 c-48 0 -92 -1 -97 -3z"/>
<path d="M15930 15899 c-105 -16 -127 -20 -184 -35 -73 -19 -141 -41 -181 -59
-102 -45 -132 -59 -154 -75 -14 -9 -46 -30 -71 -46 -24 -16 -56 -38 -70 -49
-50 -40 -210 -206 -210 -218 0 -2 -20 -34 -43 -70 -24 -36 -55 -91 -68 -122
-13 -30 -26 -55 -29 -55 -3 0 -5 161 -5 358 l0 357 -85 1 c-47 0 -89 -1 -95
-3 -11 -4 -14 -3021 -3 -3038 3 -6 28 -9 55 -8 26 1 67 2 90 2 l43 1 0 123 c0
67 1 129 1 137 0 18 0 386 -1 415 0 11 0 49 1 85 0 36 0 72 0 80 0 8 0 132 0
275 0 143 0 267 0 275 -4 266 7 479 29 570 5 19 11 46 14 60 11 55 35 128 59
183 14 31 24 57 21 57 -3 0 3 12 14 28 10 15 29 47 41 72 13 25 26 47 30 50 3
3 25 30 47 60 119 160 315 294 518 354 44 14 95 27 111 30 17 4 41 9 55 11 81
17 313 23 413 12 344 -41 586 -207 726 -497 37 -75 77 -196 86 -260 4 -25 8
-47 10 -50 15 -24 19 -254 19 -1098 l1 -972 30 1 c17 0 46 -2 66 -4 20 -3 42
-1 50 4 8 4 19 3 26 -3 9 -7 14 -6 19 6 4 9 8 416 9 904 1 488 5 905 8 927 4
22 9 56 11 75 3 19 8 46 11 60 3 14 7 34 9 45 17 88 124 344 148 353 4 2 8 9
8 14 0 18 79 117 150 188 110 109 294 219 430 256 96 26 197 46 250 51 146 13
370 4 427 -18 13 -5 23 -7 23 -4 0 6 122 -31 170 -53 25 -11 52 -23 60 -26 81
-33 189 -122 275 -227 46 -56 129 -207 145 -264 1 -5 6 -19 10 -31 16 -40 51
-220 58 -289 3 -38 6 -496 7 -1017 l0 -948 35 -1 c52 -2 154 2 157 5 5 4 3
1827 -2 1911 -5 93 -14 186 -21 207 -3 10 -7 30 -10 45 -29 164 -141 419 -219
499 -6 6 -27 30 -46 53 -76 94 -261 220 -374 257 -27 9 -54 19 -60 23 -5 3
-14 6 -20 8 -5 1 -35 8 -65 16 -119 32 -201 41 -370 41 -170 0 -242 -7 -375
-38 -140 -33 -314 -108 -412 -178 -25 -18 -52 -37 -61 -43 -66 -42 -252 -237
-252 -263 0 -6 -3 -12 -7 -14 -13 -5 -73 -98 -73 -111 0 -7 -5 -18 -10 -23 -6
-6 -23 -41 -39 -78 -16 -37 -31 -64 -33 -60 -3 5 -11 32 -18 59 -8 28 -20 61
-27 75 -7 14 -13 32 -13 41 0 9 -7 22 -15 29 -8 7 -15 20 -15 29 0 9 -9 27
-20 41 -11 14 -20 29 -20 33 0 7 -13 27 -60 91 -40 56 -183 187 -245 227 -88
56 -204 111 -260 123 -5 2 -30 8 -55 15 -25 7 -53 15 -63 17 -10 2 -26 5 -35
8 -61 18 -394 29 -482 15z"/>
<path d="M22058 15905 c-2 -2 -23 -6 -48 -10 -25 -3 -52 -8 -60 -10 -8 -2 -31
-7 -50 -10 -42 -7 -167 -42 -195 -55 -81 -36 -120 -52 -120 -49 0 2 -14 -6
-32 -19 -17 -12 -34 -22 -38 -22 -4 0 -48 -28 -98 -62 -80 -55 -245 -207 -300
-277 -29 -36 -117 -169 -117 -175 0 -4 -10 -23 -23 -44 -27 -43 -94 -197 -86
-197 1 0 -3 -10 -9 -21 -11 -21 -59 -194 -68 -244 -2 -14 -7 -41 -10 -60 -17
-99 -23 -428 -10 -495 3 -16 11 -57 16 -90 16 -96 18 -106 44 -190 61 -206
153 -378 285 -534 51 -59 80 -89 176 -176 47 -43 182 -129 278 -178 48 -25 87
-43 87 -41 0 2 14 -3 32 -12 27 -14 128 -47 178 -58 8 -2 33 -9 55 -15 22 -5
58 -13 80 -16 22 -3 60 -8 85 -12 63 -9 343 -9 415 -1 81 10 122 17 170 30 22
5 51 12 64 15 44 8 215 74 267 104 28 16 54 26 57 22 4 -3 7 -2 7 3 0 6 19 21
43 34 70 39 168 117 249 200 l78 78 -62 65 -62 65 -35 -40 c-100 -115 -221
-207 -357 -273 -80 -38 -164 -71 -205 -79 -8 -2 -21 -6 -29 -9 -36 -13 -166
-36 -248 -43 -114 -9 -299 -4 -375 12 -12 2 -33 6 -47 9 -59 11 -76 15 -129
30 -74 21 -215 77 -219 87 -2 4 -12 8 -22 8 -10 0 -21 4 -24 9 -3 5 -32 24
-64 41 -123 70 -285 224 -374 356 -67 101 -154 276 -162 326 -1 7 -4 18 -8 23
-4 8 -15 48 -23 85 -7 34 -16 80 -20 100 -7 33 -14 101 -20 176 -4 44 -2 63 7
66 7 2 608 4 1335 4 726 -1 1319 2 1317 6 -2 4 0 9 6 13 6 4 8 10 6 14 -3 3
-7 58 -10 121 -3 63 -10 140 -16 170 -5 30 -12 69 -15 85 -3 17 -12 55 -20 85
-9 30 -17 60 -19 65 -42 153 -147 358 -255 499 -54 71 -220 220 -314 284 -59
39 -107 69 -107 67 0 -3 -18 6 -40 20 -22 14 -40 23 -40 21 0 -3 -30 8 -67 25
-38 17 -68 30 -68 29 0 -1 -20 4 -45 11 -51 14 -56 15 -90 22 -14 3 -36 8 -50
11 -14 4 -41 9 -60 12 -38 6 -367 14 -372 9z m362 -189 c25 -4 63 -12 85 -18
22 -5 47 -11 55 -13 23 -5 129 -45 189 -72 64 -28 211 -123 211 -135 0 -4 6
-8 13 -8 7 0 23 -10 34 -22 11 -13 29 -30 39 -39 16 -13 104 -109 135 -147 9
-11 59 -88 96 -147 33 -53 105 -220 119 -275 2 -8 10 -40 18 -70 8 -30 17 -71
20 -90 3 -19 8 -46 10 -60 3 -14 6 -47 8 -75 l3 -50 -1235 0 -1235 0 2 70 c2
39 7 90 13 115 10 42 14 61 26 117 8 41 66 198 91 248 27 54 93 167 102 175 4
3 26 31 50 63 127 168 382 343 571 392 45 12 141 35 180 43 50 10 331 9 400
-2z"/>
<path d="M25768 15905 c-1 -1 -37 -6 -79 -9 -42 -4 -100 -13 -128 -21 -28 -7
-55 -14 -59 -14 -6 -1 -74 -20 -92 -26 -3 -1 -26 -8 -52 -15 -27 -8 -48 -17
-48 -21 0 -6 -19 -13 -60 -24 -39 -10 -228 -126 -300 -184 -42 -35 -147 -137
-201 -197 -48 -54 -135 -189 -180 -279 -37 -73 -113 -262 -110 -272 1 -2 1 -4
0 -5 -1 -5 -8 -33 -13 -54 -2 -12 -9 -38 -14 -57 -6 -20 -8 -38 -5 -41 3 -2 1
-10 -3 -17 -4 -7 -9 -25 -10 -39 -2 -14 -5 -47 -9 -75 -13 -107 -8 -321 9
-450 7 -47 36 -188 43 -205 3 -8 8 -24 10 -35 6 -34 81 -222 109 -272 40 -71
112 -182 153 -233 50 -63 177 -188 236 -232 28 -21 55 -41 60 -45 28 -23 113
-73 123 -73 5 0 12 -3 14 -8 5 -12 167 -83 238 -104 84 -25 174 -47 219 -54
20 -3 47 -7 61 -10 14 -2 93 -6 175 -8 135 -3 207 2 308 20 17 3 46 7 63 9 17
3 44 9 60 15 16 6 30 11 32 11 1 -1 4 0 7 0 3 1 8 2 13 3 81 18 256 95 352
154 47 29 154 106 170 122 3 3 40 38 82 78 42 39 74 72 71 72 -2 0 3 7 11 16
50 50 176 238 176 263 0 6 5 11 10 11 6 0 10 6 10 14 0 7 10 33 23 57 39 76
99 269 117 379 30 190 33 470 5 600 -3 14 -8 39 -10 55 -6 38 -11 61 -24 103
-5 18 -10 33 -10 35 0 4 -9 32 -36 112 -46 133 -142 308 -225 409 -60 74 -232
235 -300 282 -118 81 -346 187 -447 209 -10 2 -49 10 -88 18 -38 8 -90 18
-115 22 -47 7 -335 16 -342 10z m287 -188 c107 -15 128 -18 135 -22 4 -2 20
-6 36 -9 48 -9 147 -42 211 -71 32 -15 67 -31 78 -36 32 -14 150 -91 197 -129
59 -47 183 -176 216 -225 15 -22 29 -42 32 -45 3 -3 10 -14 17 -25 169 -279
240 -599 209 -941 -7 -82 -13 -126 -21 -154 -2 -8 -7 -28 -9 -45 -13 -75 -59
-205 -114 -325 -71 -156 -258 -370 -412 -472 -138 -91 -343 -177 -465 -193
-16 -2 -30 -5 -30 -6 0 -4 -174 -21 -235 -22 -41 0 -182 11 -225 18 -16 3 -41
7 -55 9 -14 2 -59 14 -100 26 -41 12 -79 23 -85 24 -18 5 -89 36 -145 64 -132
64 -299 197 -390 312 -19 24 -43 52 -52 62 -10 10 -18 22 -18 27 0 4 -9 20
-21 35 -67 85 -169 349 -195 506 -18 109 -24 390 -11 491 8 56 10 70 24 139 9
46 10 50 13 53 1 1 3 11 5 21 6 34 36 120 58 166 11 25 22 51 23 57 1 7 26 52
54 100 89 149 200 274 325 368 61 45 179 118 189 116 4 -1 28 10 55 24 27 15
59 27 70 28 12 1 21 4 21 8 0 4 15 10 33 14 17 4 37 9 42 11 6 1 20 5 33 8 12
3 32 9 45 12 12 3 43 8 69 10 26 3 59 9 73 12 28 8 259 7 320 -1z"/>
<path d="M29078 15905 c-2 -1 -32 -6 -68 -9 -172 -18 -363 -77 -495 -154 -249
-144 -387 -386 -380 -663 2 -72 9 -137 19 -174 2 -5 6 -23 11 -40 23 -87 84
-186 159 -260 88 -86 187 -145 333 -201 66 -24 317 -94 358 -99 19 -2 48 -8
105 -21 14 -3 36 -7 50 -9 14 -2 81 -15 150 -30 69 -14 145 -30 170 -35 92
-18 136 -29 163 -39 15 -6 27 -8 27 -5 0 4 6 2 13 -3 6 -6 36 -18 65 -27 71
-22 157 -63 212 -100 149 -99 219 -231 218 -412 0 -64 -4 -95 -24 -184 -7 -31
-45 -111 -61 -128 -7 -7 -13 -17 -13 -22 0 -16 -107 -113 -162 -146 -54 -33
-164 -82 -198 -89 -8 -2 -35 -8 -60 -15 -48 -13 -53 -14 -117 -25 -145 -24
-507 -25 -613 -2 -8 2 -33 7 -55 11 -81 16 -202 48 -275 73 -156 54 -363 168
-459 252 -35 30 -51 32 -51 5 0 -8 -4 -14 -9 -14 -5 0 -13 -10 -17 -22 -4 -13
-18 -37 -31 -55 l-25 -32 38 -36 c57 -56 169 -128 280 -180 134 -63 130 -62
209 -85 39 -12 81 -26 95 -30 26 -9 198 -45 260 -55 135 -20 389 -26 535 -12
246 22 434 78 610 181 60 36 214 187 238 236 10 19 21 42 26 50 22 41 29 59
44 110 22 77 31 144 29 225 -4 346 -176 549 -578 684 -66 22 -139 43 -162 47
-24 4 -45 11 -48 15 -3 5 -9 7 -13 5 -4 -3 -27 0 -52 5 -24 6 -55 13 -69 15
-14 3 -54 12 -90 20 -36 8 -81 17 -100 20 -66 10 -366 78 -400 91 -8 3 -22 7
-31 9 -9 2 -29 9 -45 15 -16 7 -34 13 -41 15 -21 4 -168 78 -181 91 -7 7 -17
13 -22 13 -5 0 -38 29 -73 64 -58 59 -113 147 -123 199 -2 10 -6 27 -9 37 -11
35 -13 175 -3 229 30 167 117 289 276 386 40 25 75 44 77 44 3 0 31 9 63 21
31 12 66 24 77 26 20 4 44 9 88 19 12 3 42 8 67 11 25 3 56 7 70 10 38 7 298
6 355 -1 81 -10 228 -36 237 -41 5 -3 21 -7 36 -10 110 -19 409 -157 453 -210
13 -16 39 -19 39 -4 0 11 34 62 57 87 23 26 26 56 7 71 -77 57 -262 149 -369
183 -22 7 -44 16 -50 20 -9 6 -81 21 -87 19 -2 -1 -16 4 -33 10 -16 7 -43 14
-60 17 -49 7 -69 11 -95 17 -58 13 -125 18 -292 21 -97 1 -178 1 -180 0z"/>
<path d="M10639 15886 c-4 -4 0 -1838 4 -1842 3 -3 2 -16 -3 -29 -5 -13 -6
-26 -3 -29 4 -3 7 -23 9 -43 3 -55 13 -145 19 -168 37 -172 48 -206 97 -320
63 -144 202 -319 316 -396 26 -18 49 -36 52 -39 7 -10 210 -110 210 -104 0 2
12 -2 28 -9 28 -15 135 -45 187 -53 17 -2 41 -7 55 -10 138 -31 505 -23 622
12 10 3 30 7 44 10 39 7 181 58 239 85 169 80 358 247 461 409 32 52 59 96 60
99 0 3 12 31 26 61 l26 55 1 -365 c1 -200 4 -366 6 -369 7 -6 162 -4 173 3 5
3 9 60 8 126 -1 66 3 120 8 120 5 0 3 7 -4 15 -10 12 -10 15 0 15 8 0 9 4 3
13 -5 6 -8 68 -6 137 1 69 3 145 3 170 0 25 0 70 0 100 0 30 0 64 -1 75 0 11
0 80 0 153 1 72 1 140 1 150 0 9 0 82 0 162 0 80 0 151 0 158 -1 114 -1 166
-1 185 1 89 1 135 0 152 -1 21 0 214 1 295 0 25 -1 73 -3 108 -1 34 1 62 6 62
6 0 6 5 0 13 -5 6 -8 68 -6 137 1 69 3 145 3 170 0 39 0 96 0 165 0 248 1 214
-3 295 l-2 65 -95 0 -95 0 -1 -860 c-1 -762 -5 -982 -19 -1035 -2 -8 -6 -31
-9 -50 -8 -54 -44 -184 -67 -242 -104 -266 -279 -460 -522 -577 -79 -39 -182
-76 -236 -86 -14 -3 -37 -7 -51 -10 -114 -23 -324 -33 -420 -20 -19 2 -54 7
-77 10 -40 5 -127 22 -148 29 -5 1 -30 8 -54 15 -24 7 -51 16 -60 21 -9 5 -38
19 -66 31 -116 52 -259 172 -333 280 -40 59 -95 169 -117 234 -19 56 -19 56
-40 155 -15 71 -25 148 -30 235 -2 28 -4 460 -4 960 l-1 910 -95 1 c-52 0 -95
0 -96 0z"/>
</g>
</svg>
