<?xml version="1.0" standalone="no"?>
<!DOCTYPE svg PUBLIC "-//W3C//DTD SVG 20010904//EN"
 "http://www.w3.org/TR/2001/REC-SVG-20010904/DTD/svg10.dtd">
<svg version="1.0" xmlns="http://www.w3.org/2000/svg"
 width="700.000000pt" height="700.000000pt" viewBox="0 0 700.000000 700.000000"
 preserveAspectRatio="xMidYMid meet">
<metadata>
Created by potrace 1.11, written by Peter Selinger 2001-2013
</metadata>
<g transform="translate(0.000000,700.000000) scale(0.100000,-0.100000)"
fill="#000000" stroke="none">
<path d="M1449 6966 c-2 -2 -24 -6 -49 -9 -147 -17 -350 -83 -495 -162 -418
-228 -697 -634 -764 -1110 -15 -110 -7 -354 17 -470 62 -301 195 -548 415
-768 51 -51 117 -110 147 -133 30 -22 71 -52 90 -66 39 -28 93 -129 142 -263
87 -236 91 -508 13 -750 -44 -135 -131 -299 -217 -409 -21 -26 -35 -53 -31
-59 3 -6 1 -7 -5 -3 -6 3 -14 0 -19 -8 -4 -8 -37 -35 -72 -62 -263 -197 -488
-560 -545 -879 -22 -124 -29 -367 -14 -489 32 -244 150 -516 316 -726 99 -124
293 -286 437 -364 90 -49 259 -116 330 -132 161 -35 253 -47 365 -47 66 -1
251 13 260 18 4 2 22 7 41 10 126 22 316 94 441 166 187 109 370 277 480 443
15 21 53 54 85 73 55 34 215 113 237 118 6 1 18 5 26 8 35 15 177 47 234 54
74 9 234 8 296 -1 80 -12 200 -46 288 -81 76 -31 259 -127 272 -144 3 -3 25
-19 49 -36 24 -16 67 -61 96 -100 101 -137 276 -297 405 -370 176 -100 361
-169 510 -190 25 -4 61 -10 80 -14 43 -9 307 -7 375 3 272 41 552 166 745 332
432 373 615 930 483 1474 -107 443 -399 798 -808 982 -73 33 -188 75 -225 83
-8 2 -36 8 -63 14 -177 41 -339 45 -565 16 -93 -13 -256 -63 -371 -116 -200
-93 -404 -253 -536 -423 -96 -123 -347 -258 -579 -311 -155 -36 -338 -38 -481
-5 -27 7 -54 13 -60 14 -97 21 -277 102 -382 172 -34 22 -68 58 -95 97 -90
134 -224 276 -345 365 -35 25 -63 49 -63 53 0 4 -6 14 -13 21 -32 35 -129 235
-162 332 -40 123 -56 211 -59 336 -7 234 47 437 172 651 39 67 53 81 110 115
202 118 418 346 534 563 74 141 131 310 154 456 16 106 19 147 19 240 -3 314
-84 573 -260 835 -63 94 -229 273 -315 342 -195 154 -433 257 -700 305 -41 7
-365 15 -371 9z"/>
<path d="M5348 6845 c-2 -2 -26 -7 -53 -10 -228 -29 -482 -136 -690 -290 -66
-48 -228 -215 -287 -295 -123 -165 -242 -441 -264 -615 -2 -16 -8 -59 -13 -95
-11 -81 -7 -290 8 -390 79 -515 439 -960 931 -1149 46 -18 91 -34 100 -36 8
-2 42 -10 75 -18 33 -9 76 -18 95 -21 19 -2 53 -7 75 -11 152 -21 383 -7 542
35 201 53 373 137 538 266 552 428 726 1182 419 1812 -31 61 -112 195 -144
235 -251 316 -566 506 -945 569 -56 10 -380 20 -387 13z"/>
</g>
</svg>
