<?xml version="1.0" encoding="UTF-8"?>
<svg width="24px" height="24px" viewBox="0 0 24 24" version="1.1" xmlns="http://www.w3.org/2000/svg" xmlns:xlink="http://www.w3.org/1999/xlink">
    <!-- Generator: sketchtool 50.2 (55047) - http://www.bohemiancoding.com/sketch -->
    <title>9DA48F6A-F3F0-4120-AF4B-E0DF18975D71</title>
    <desc>Created with sketchtool.</desc>
    <defs></defs>
    <g id="Landing-Page" stroke="none" stroke-width="1" fill="none" fill-rule="evenodd" fill-opacity="0.5">
        <g id="Landing-Page_Video" transform="translate(-1377.000000, -115.000000)" fill="#FFFFFF" fill-rule="nonzero">
            <g id="close-(1)" transform="translate(1377.000000, 115.000000)">
                <path d="M14.114,11.993 L23.546,2.561 C24.132,1.9755 24.132,1.0255 23.546,0.44 C22.96,-0.146 22.011,-0.146 21.425,0.44 L11.993,9.872 L2.5605,0.44 C1.9745,-0.146 1.0255,-0.146 0.4395,0.44 C-0.1465,1.0255 -0.1465,1.9755 0.4395,2.561 L9.872,11.993 L0.4395,21.425 C-0.1465,22.0105 -0.1465,22.9605 0.4395,23.546 C0.7325,23.8385 1.1165,23.985 1.5,23.985 C1.8835,23.985 2.2675,23.8385 2.5605,23.5455 L11.993,14.1135 L21.425,23.5455 C21.718,23.8385 22.102,23.985 22.4855,23.985 C22.869,23.985 23.253,23.8385 23.546,23.5455 C24.132,22.96 24.132,22.01 23.546,21.4245 L14.114,11.993 Z" id="Shape"></path>
            </g>
        </g>
    </g>
</svg>