<?xml version="1.0" encoding="UTF-8"?>
<svg width="90px" height="90px" viewBox="0 0 90 90" version="1.1" xmlns="http://www.w3.org/2000/svg" xmlns:xlink="http://www.w3.org/1999/xlink">
    <!-- Generator: sketchtool 50.2 (55047) - http://www.bohemiancoding.com/sketch -->
    <title>453EE0C9-6146-48B4-97B6-ED6E161881A2</title>
    <desc>Created with sketchtool.</desc>
    <defs></defs>
    <g id="Landing-Page" stroke="none" stroke-width="1" fill="none" fill-rule="evenodd">
        <g id="Landing-Page_UI" transform="translate(-1159.000000, -228.000000)" fill="#FFFFFF">
            <g id="first-screen" transform="translate(192.000000, -521.000000)">
                <g id="play" transform="translate(967.000000, 749.000000)">
                    <g id="Group-2">
                        <circle id="Oval" stroke-opacity="0.7" stroke="#FFFFFF" stroke-width="2" fill-opacity="0.199999988" cx="45" cy="45" r="44"></circle>
                        <g id="play-button" transform="translate(30.000000, 30.000000)" fill-rule="nonzero">
                            <path d="M28.6934194,14.4117647 L8.11277419,0.125703772 C7.89490323,-0.0250141702 7.61245161,-0.0407288371 7.37967742,0.0814169835 C7.14619355,0.20499141 7,0.447854445 7,0.713575178 L7,29.285697 C7,29.5514177 7.14619355,29.794995 7.37967742,29.9185695 C7.48329032,29.9728565 7.59683871,30 7.70967742,30 C7.85090323,30 7.99141935,29.9571418 8.11277419,29.8735684 L28.6934194,15.5875075 C28.8857419,15.4539328 29,15.2346418 29,14.9996361 C29,14.7646304 28.8850323,14.5453393 28.6934194,14.4117647 Z" id="Shape"></path>
                        </g>
                    </g>
                </g>
            </g>
        </g>
    </g>
</svg>