<?xml version="1.0" encoding="UTF-8"?>
<svg width="119px" height="117px" viewBox="0 0 119 117" version="1.1" xmlns="http://www.w3.org/2000/svg" xmlns:xlink="http://www.w3.org/1999/xlink">
    <!-- Generator: sketchtool 50.2 (55047) - http://www.bohemiancoding.com/sketch -->
    <title>61CA00E6-7144-43D9-B212-5A7DA752E91F</title>
    <desc>Created with sketchtool.</desc>
    <defs></defs>
    <g id="Landing-Page" stroke="none" stroke-width="1" fill="none" fill-rule="evenodd">
        <g id="Landing-Page_UI" transform="translate(-1163.000000, -698.000000)" fill-rule="nonzero">
            <g id="advantages" transform="translate(200.000000, 653.000000)">
                <g id="Group-8-Copy-2" transform="translate(846.000000, 0.000000)">
                    <g id="image_3" transform="translate(117.000000, 45.000000)">
                        <path d="M58.8687195,77.2926708 L58.8687195,74.6692547 C53.0638415,74.2986335 50.2484756,70.7959006 50.2121951,67.0824224 L53.0130488,67.0824224 C53.1581707,69.7058385 55.1245732,71.7987578 58.8687195,72.1693789 L58.8687195,61.2687578 L57.272378,60.8327329 C53.9563415,59.9534161 50.945061,57.9840373 50.945061,53.7836646 C50.945061,49.2562733 54.3264024,46.7345963 58.8687195,46.3421739 L58.8687195,43.6024845 L61.1979268,43.6024845 L61.1979268,46.2840373 C65.6821951,46.6546584 69.0780488,49.3434783 69.1796341,53.551118 L66.4368293,53.551118 C66.3787805,51.1747826 64.5139634,49.14 61.1979268,48.7911801 L61.1979268,59.0886335 L62.6491463,59.4592547 C67.1334146,60.6510559 69.6585366,62.6785714 69.6585366,66.9007453 C69.6585366,71.7406211 66.0304878,74.2986335 61.2051829,74.6474534 L61.2051829,77.2926708 L58.8687195,77.2926708 Z M57.6206707,58.0639752 C57.9254268,58.1729814 58.4986585,58.3546584 58.8687195,58.4563975 L58.8687195,48.8202484 C55.8139024,49.1327329 53.695122,50.7678261 53.695122,53.5583851 C53.695122,55.6077019 54.9576829,57.1047205 57.6206707,58.0639752 Z M61.7929268,61.9809317 C61.6115244,61.9373292 61.3865854,61.8791925 61.1979268,61.8210559 L61.1979268,72.1911801 C64.5937805,71.9222981 66.8867073,70.1200621 66.8867073,67.1042236 C66.8867073,64.6261491 65.6168902,63.1073292 61.7929268,61.9809317 Z" id="Shape" fill="#214068"></path>
                        <path d="M59.9281098,20.5295031 C37.9112782,20.5295031 20.0631098,38.4046874 20.0631098,60.4548447 C20.0631098,82.505002 37.9112782,100.380186 59.9281098,100.380186 C81.9449413,100.380186 99.7931098,82.505002 99.7931098,60.4548447 C99.7931098,49.8659858 95.5930593,39.7108189 88.1169216,32.2233649 C80.6407839,24.7359109 70.5009651,20.5295031 59.9281098,20.5295031 Z M59.9281098,83.7531056 C50.5187205,83.7530941 42.0365284,78.0744861 38.4391097,69.3667765 C34.841691,60.6590669 36.8380166,50.6383507 43.4966515,43.9800406 C50.1552863,37.3217306 60.1639622,35.3380308 68.8528842,38.9544855 C77.5418061,42.5709402 83.1985817,51.0748269 83.1839024,60.4984472 C83.181984,66.6710075 80.7298199,72.5895659 76.3676758,76.9501341 C72.0055317,81.3107023 66.0913338,83.7554834 59.9281098,83.7458385 L59.9281098,83.7531056 Z" id="Shape" fill="#50E0EF"></path>
                        <path d="M59.9643902,93.4546584 L59.9643902,90.9547826 C61.0283744,90.9544141 62.0916195,90.8986245 63.1498171,90.7876398 L63.4110366,93.2729814 C62.2718293,93.3892547 61.1253659,93.4473913 59.9643902,93.4546584 Z M56.525,93.2802484 C55.3821581,93.1630577 54.2462314,92.9859828 53.1218902,92.7497516 L53.6298171,90.3080124 C54.6601829,90.5187578 55.7123171,90.6859006 56.7789634,90.7949068 L56.525,93.2802484 Z M66.8141463,92.7352174 L66.2989634,90.2862112 C67.3363192,90.0689951 68.3609735,89.7948552 69.3682927,89.4650311 L70.1446951,91.8340994 C69.0504029,92.190554 67.938798,92.4913114 66.8141463,92.7352174 Z M49.7840854,91.8631677 C48.6899231,91.5064521 47.6146258,91.094116 46.562378,90.627764 L47.5782317,88.3459006 C48.5458357,88.7783416 49.5365992,89.1568088 50.5459756,89.4795652 L49.7840854,91.8631677 Z M73.3591463,90.5986957 L72.3360366,88.3240994 C73.3156098,87.8808075 74.2589024,87.4011801 75.1804268,86.8706832 L76.4212195,89.0508075 C75.4281472,89.619837 74.4060625,90.1365042 73.3591463,90.5986957 Z M43.4930488,89.0580745 C42.508142,88.4912586 41.5538429,87.8726936 40.6341463,87.2049689 L42.0853659,85.1847205 C42.9484105,85.8079866 43.8420257,86.3876541 44.7628659,86.9215528 L43.4930488,89.0580745 Z M79.3091463,87.1395652 L77.8579268,85.1193168 C78.7191567,84.4971555 79.5452061,83.8275522 80.3322561,83.1136025 L82.0011585,84.9667081 C81.1416536,85.7367883 80.2431267,86.4620342 79.3091463,87.1395652 Z M37.9493902,85.0103106 C37.0955832,84.241205 36.2818261,83.4286417 35.5113415,82.5758385 L37.3543902,80.8971429 C38.0668466,81.6894256 38.8226421,82.4415128 39.6182927,83.1499379 L37.9493902,85.0103106 Z M84.4609756,82.5177019 L82.6034146,80.8535404 C83.3290244,80.0614286 83.9820732,79.2329814 84.6133537,78.3681988 L86.6232927,79.8216149 C85.9416742,80.7590358 85.2101689,81.6590333 84.4319512,82.5177019 L84.4609756,82.5177019 Z M33.3054878,79.8942857 C32.6267707,78.9587273 31.9970597,77.9884747 31.4189024,76.9874534 L33.5957317,75.7302484 C34.1326829,76.6531677 34.7131707,77.5397516 35.3371951,78.4045342 L33.3054878,79.8942857 Z M88.4518293,76.9874534 L86.275,75.7302484 C86.8103773,74.8129554 87.2948523,73.8667992 87.7262195,72.896087 L90.0046341,73.9062112 C89.5471631,74.9482631 89.033646,75.9647222 88.4663415,76.951118 L88.4518293,76.9874534 Z M29.8370732,73.9716149 C29.3654817,72.9209587 28.9489002,71.8463949 28.5890244,70.7522981 L30.9617683,69.9747205 C31.2921376,70.9871047 31.674808,71.9816131 32.1082317,72.9542236 L29.8370732,73.9716149 Z M91.259939,70.6868944 L88.8944512,69.9165839 C89.2204225,68.9042884 89.4940983,67.8758443 89.7143902,66.8353416 L92.152439,67.3440373 C91.919165,68.4611755 91.6260793,69.5649428 91.2744512,70.650559 L91.259939,70.6868944 Z M27.6965244,67.409441 C27.458343,66.2667099 27.2815241,65.1120083 27.1668293,63.9503106 L29.6484146,63.6886957 C29.7587885,64.7530283 29.9259174,65.8106877 30.1490854,66.8571429 L27.6965244,67.409441 Z M92.6821341,63.9357764 L90.2078049,63.6741615 C90.318619,62.6167926 90.3743247,61.5543574 90.3746951,60.4911801 L92.3338415,60.389441 L92.8562805,60.389441 C92.8670819,61.5614822 92.8137907,62.7332364 92.6966463,63.899441 L92.6821341,63.9357764 Z M26.9854268,60.5202484 L26.9854268,60.4548447 C26.9854268,59.313913 27.0434756,58.1875155 27.1523171,57.0756522 L29.6339024,57.33 C29.5323171,58.3546584 29.4742683,59.401118 29.4742683,60.4548447 L26.9854268,60.5202484 Z M90.2078049,57.1410559 C90.0939303,56.0815458 89.9243862,55.0287818 89.699878,53.9871429 L92.1379268,53.463913 C92.377378,54.5830435 92.5587805,55.7167081 92.6893902,56.8721739 L90.2078049,57.1410559 Z M30.120061,54.183354 L27.6820122,53.6673913 C27.9172517,52.5380669 28.2127568,51.4221809 28.5672561,50.3245342 L30.94,51.0948447 C30.6097618,52.1083381 30.3360266,53.1394316 30.120061,54.183354 Z M88.8944512,50.9131677 C88.5538629,49.9089569 88.1590327,48.9240262 87.7117073,47.9627329 L89.9756098,46.9162733 C90.4532722,47.9677367 90.8723504,49.0449181 91.2309146,50.1428571 L88.8944512,50.9131677 Z M32.0719512,48.1153416 L29.7935366,47.1052174 C30.2566773,46.0478724 30.7774828,45.016815 31.3535976,44.0167081 L33.5304268,45.266646 C32.9909839,46.1878872 32.5040463,47.1389739 32.0719512,48.1153416 Z M86.2532317,45.1067702 C85.7170323,44.1855693 85.1333368,43.2929341 84.5045122,42.4324845 L86.5144512,40.9790683 C87.1916836,41.9156483 87.8213444,42.8858235 88.4010366,43.8859006 L86.2532317,45.1067702 Z M35.2428659,42.5850932 L33.2256707,41.131677 C33.9047748,40.1986217 34.6313442,39.301163 35.4025,38.4428571 L37.260061,40.1070186 C36.5441259,40.8965175 35.8707701,41.7237186 35.2428659,42.5850932 Z M82.4873171,39.9689441 C81.7735522,39.1826488 81.0203662,38.4331737 80.2306707,37.7234161 L81.8923171,35.8630435 C82.7478866,36.630283 83.5617392,37.4429416 84.3303659,38.2975155 L82.4873171,39.9689441 Z M39.494939,37.8396894 L37.8260366,35.9865839 C38.675,35.2162733 39.5675,34.4895652 40.4890244,33.8064596 L41.9402439,35.819441 C41.0917501,36.4512595 40.2756119,37.125532 39.494939,37.8396894 Z M77.7490854,35.7104348 C76.8856098,35.0927329 75.9931098,34.5113665 75.0715854,33.9808696 L76.312378,31.8007453 C77.3064634,32.3821118 78.2787805,32.9998137 79.2148171,33.6756522 L77.7490854,35.7104348 Z M44.6322561,34.0753416 L43.3769512,31.8952174 C44.3699202,31.32381 45.3920027,30.8047182 46.4390244,30.3400621 L47.4621341,32.6146584 C46.4927802,33.0491502 45.5480567,33.5367831 44.6322561,34.0753416 Z M72.2054268,32.5419876 C71.23209,32.1114699 70.2366016,31.7330483 69.2231707,31.408323 L70.0140854,29.068323 C71.1081389,29.4225762 72.1834383,29.8324876 73.2357927,30.2964596 L72.2054268,32.5419876 Z M50.4371341,31.4664596 L49.6534756,29.068323 C50.7425563,28.7188086 51.8494738,28.427712 52.9695122,28.1962733 L53.4919512,30.6307453 C52.4576691,30.8567194 51.4356363,31.135657 50.429878,31.4664596 L50.4371341,31.4664596 Z M66.1756098,30.5944099 C65.1328254,30.3762563 64.079207,30.2137292 63.0192073,30.1075155 L63.2659146,27.6149068 C64.4196341,27.7384472 65.5588415,27.9128571 66.6690244,28.1454037 L66.1756098,30.5944099 Z M56.6628659,30.1293168 L56.3871341,27.6149068 C57.5297539,27.4956456 58.6777176,27.4350073 59.8265244,27.4332298 L59.8265244,29.9258385 C58.7666162,29.935084 57.7080291,30.0030138 56.6556098,30.1293168 L56.6628659,30.1293168 Z" id="Shape" fill="#214068"></path>
                        <ellipse id="Oval" fill="#25AFF4" cx="23.945122" cy="16.9613665" rx="11.4718902" ry="11.4892547"></ellipse>
                        <ellipse id="Oval" fill="#25AFF4" cx="101.062927" cy="31.2048447" rx="14.8532317" ry="14.8757143"></ellipse>
                        <path d="M11.0002439,85.41 C15.3002185,85.41 18.7860366,88.9010944 18.7860366,93.2075776 C18.7860366,97.5140609 15.3002185,101.005155 11.0002439,101.005155 C6.70026934,101.005155 3.21445122,97.5140609 3.21445122,93.2075776 C3.2224376,88.9044119 6.70358175,85.4179985 11.0002439,85.41 Z M11.0002439,82.9173913 C6.8409474,82.9173923 3.09133888,85.4270733 1.50032373,89.2758602 C-0.0906914296,93.1246471 0.790314201,97.554335 3.73241892,100.498814 C6.67452365,103.443292 11.0981376,104.322504 14.9399834,102.726364 C18.7818292,101.130224 21.2850694,97.3731688 21.2821341,93.2075776 C21.2821348,90.477191 20.1986358,87.8587399 18.2701985,85.9287466 C16.3417612,83.9987533 13.7265033,82.9154631 11.0002439,82.9173913 Z" id="Shape" fill="#214068"></path>
                        <path d="M76.7767683,2.4926087 C79.7062011,2.4926087 82.0809756,4.87097778 82.0809756,7.80484472 C82.0809756,10.7387117 79.7062011,13.1170807 76.7767683,13.1170807 C73.8473355,13.1170807 71.472561,10.7387117 71.472561,7.80484472 C71.472561,4.87097778 73.8473355,2.4926087 76.7767683,2.4926087 Z M76.7767683,1.29089286e-15 C72.4727863,1.46908186e-15 68.9837195,3.49434801 68.9837195,7.80484472 C68.9837195,12.1153414 72.4727863,15.6096894 76.7767683,15.6096894 C81.0807503,15.6096894 84.5698171,12.1153414 84.5698171,7.80484472 C84.5698171,5.7348712 83.7487661,3.74967841 82.2872859,2.28598609 C80.8258058,0.822293779 78.8436133,1.26749322e-16 76.7767683,0 Z" id="Shape" fill="#214068"></path>
                        <path d="M72.2562195,109.362298 C73.8992666,109.362298 75.2312195,110.696267 75.2312195,112.341801 C75.2312195,113.987335 73.8992666,115.321304 72.2562195,115.321304 C70.6131724,115.321304 69.2812195,113.987335 69.2812195,112.341801 C69.2852083,110.697925 70.6148274,109.366293 72.2562195,109.362298 Z M72.2562195,107.698137 C70.3808711,107.698137 68.6901816,108.829529 67.9725169,110.564748 C67.2548521,112.299966 67.6515439,114.297289 68.9776154,115.625368 C70.303687,116.953447 72.2979913,117.350739 74.0305872,116.631988 C75.7631832,115.913237 76.8928659,114.219988 76.8928659,112.341801 C76.8928659,109.777176 74.8169686,107.698137 72.2562195,107.698137 Z" id="Shape" fill="#214068"></path>
                        <ellipse id="Oval" fill="#25AFF4" cx="31.2084756" cy="99.1229814" rx="3.62079268" ry="3.62627329"></ellipse>
                        <ellipse id="Oval" fill="#25AFF4" cx="111.584268" cy="95.8745963" rx="7.07469512" ry="7.08540373"></ellipse>
                        <ellipse id="Oval" fill="#25AFF4" cx="51.1264634" cy="21.9320497" rx="3.8529878" ry="3.85881988"></ellipse>
                        <ellipse id="Oval" fill="#25AFF4" cx="11.0075" cy="76.7476398" rx="2.34371951" ry="2.34726708"></ellipse>
                        <path d="M96.839878,45.3901863 C94.507905,39.685684 90.8923911,34.5974021 86.275,30.5217391 C86.275,30.7470186 86.2096951,30.957764 86.2096951,31.1830435 C86.2170551,37.7550519 90.5438582,43.537785 96.839878,45.3901863 Z" id="Shape" fill="#006C96"></path>
                        <path d="M49.6752439,25.5074534 C51.6448666,26.3070649 53.8893588,25.3617819 54.6964634,23.3927329 C55.0011201,22.5942773 55.0292282,21.7164893 54.7762805,20.9001242 C52.269474,21.2237236 49.7987206,21.7833435 47.3968293,22.5715528 C47.5978306,23.8791267 48.45965,24.9896427 49.6752439,25.5074534 Z" id="Shape" fill="#006C96"></path>
                        <path d="M111.402866,74.2114286 C112.072663,74.211435 112.676368,74.6159152 112.932005,75.2359469 C113.187642,75.8559785 113.044765,76.5692049 112.570107,77.0424964 C112.095449,77.5157878 111.382679,77.6557453 110.764714,77.3969982 C110.146749,77.1382512 109.745538,76.5318606 109.748476,75.8610559 C109.748471,75.4222855 109.923004,75.0015913 110.233473,74.6920164 C110.543941,74.3824415 110.964763,74.2094957 111.402866,74.2114286 Z M111.402866,72.5472671 C110.060338,72.5443281 108.848508,73.3523983 108.333388,74.5940494 C107.818268,75.8357006 108.101513,77.2659066 109.050826,78.2166562 C110.000138,79.1674058 111.428183,79.4510791 112.667957,78.9351798 C113.907732,78.4192805 114.714581,77.2056157 114.711646,75.8610559 C114.711646,74.0309009 113.230255,72.5472671 111.402866,72.5472671 Z" id="Shape" fill="#214068"></path>
                    </g>
                </g>
            </g>
        </g>
    </g>
</svg>