<?xml version="1.0" encoding="UTF-8"?>
<svg width="24px" height="24px" viewBox="0 0 24 24" version="1.1" xmlns="http://www.w3.org/2000/svg" xmlns:xlink="http://www.w3.org/1999/xlink">
    <!-- Generator: sketchtool 50.2 (55047) - http://www.bohemiancoding.com/sketch -->
    <title>FE59A8BC-E083-4205-B464-2F37CC49D3AA</title>
    <desc>Created with sketchtool.</desc>
    <defs></defs>
    <g id="Landing-Page" stroke="none" stroke-width="1" fill="none" fill-rule="evenodd">
        <g id="Landing-Page_UI" transform="translate(-833.000000, -5394.000000)" fill="#0086E6" fill-rule="nonzero">
            <g id="Group-25" transform="translate(833.000000, 5352.000000)">
                <g id="Group-22" transform="translate(0.000000, 42.000000)">
                    <g id="envelope-(1)">
                        <g id="Group-19" transform="translate(0.000000, 3.000000)">
                            <path d="M21.0396694,0.0365853659 L2.93057851,0.0365853659 C1.31404959,0.0365853659 0,1.32926829 0,2.9195122 L0,15.095122 C0,16.6853659 1.31404959,17.9780488 2.93057851,17.9780488 L21.0347107,17.9780488 C22.6512397,17.9780488 23.9652893,16.6853659 23.9652893,15.095122 L23.9652893,2.92439024 C23.9702479,1.33414634 22.6561983,0.0365853659 21.0396694,0.0365853659 Z M22.631405,15.095122 C22.631405,15.9585366 21.9173554,16.6609756 21.0396694,16.6609756 L2.93057851,16.6609756 C2.05289256,16.6609756 1.33884298,15.9585366 1.33884298,15.095122 L1.33884298,2.92439024 C1.33884298,2.06097561 2.05289256,1.35853659 2.93057851,1.35853659 L21.0347107,1.35853659 C21.9123967,1.35853659 22.6264463,2.06097561 22.6264463,2.92439024 L22.6264463,15.095122 L22.631405,15.095122 Z" id="Shape"></path>
                            <path d="M15.1140496,8.85609756 L20.9752066,3.68536585 C21.2479339,3.44146341 21.2727273,3.02682927 21.0247934,2.75365854 C20.7768595,2.48536585 20.3553719,2.46097561 20.077686,2.70487805 L11.9950413,9.84146341 L10.4181818,8.45609756 C10.4132231,8.45121951 10.4082645,8.44634146 10.4082645,8.44146341 C10.3735537,8.40731707 10.338843,8.37804878 10.2991736,8.34878049 L3.88264463,2.7 C3.60495868,2.45609756 3.18347107,2.4804878 2.93553719,2.75365854 C2.68760331,3.02682927 2.71239669,3.44146341 2.99008264,3.68536585 L8.92066116,8.9 L3.01487603,14.3390244 C2.74710744,14.5878049 2.7322314,15.002439 2.98512397,15.2707317 C3.11900826,15.4073171 3.29752066,15.4804878 3.47603306,15.4804878 C3.63966942,15.4804878 3.80330579,15.4219512 3.9322314,15.304878 L9.92727273,9.78780488 L11.553719,11.2170732 C11.6826446,11.3292683 11.8413223,11.3829268 12,11.3829268 C12.1586777,11.3829268 12.322314,11.3243902 12.446281,11.2121951 L14.1173554,9.73902439 L20.077686,15.3097561 C20.2066116,15.4317073 20.3752066,15.4902439 20.538843,15.4902439 C20.7173554,15.4902439 20.8909091,15.4219512 21.0247934,15.2853659 C21.277686,15.0219512 21.2677686,14.602439 21,14.3536585 L15.1140496,8.85609756 Z" id="Shape"></path>
                        </g>
                    </g>
                </g>
            </g>
        </g>
    </g>
</svg>