<?xml version="1.0" encoding="UTF-8"?>
<svg width="40px" height="40px" viewBox="0 0 40 40" version="1.1" xmlns="http://www.w3.org/2000/svg" xmlns:xlink="http://www.w3.org/1999/xlink">
    <!-- Generator: sketchtool 50.2 (55047) - http://www.bohemiancoding.com/sketch -->
    <title>F9D6B95E-D345-44D2-9C2A-DD93CA0063AB</title>
    <desc>Created with sketchtool.</desc>
    <defs></defs>
    <g id="Landing-Page" stroke="none" stroke-width="1" fill="none" fill-rule="evenodd">
        <g id="Landing-Page_UI" transform="translate(-890.000000, -221.000000)" fill="#0086E6" fill-rule="nonzero">
            <g id="first-screen" transform="translate(192.000000, -521.000000)">
                <g id="socials" transform="translate(665.000000, 717.000000)">
                    <g id="Group-5" transform="translate(8.000000, 0.000000)">
                        <g id="facebook-letter-logo" transform="translate(25.000000, 25.000000)">
                            <path d="M14.1462327,7.73085847 C14.1462327,8.73679814 14.1462327,13.2267285 14.1462327,13.2267285 L10.0654653,13.2267285 L10.0654653,19.9470998 L14.1462327,19.9470998 L14.1462327,39.9176798 L22.528995,39.9176798 L22.528995,19.9476566 L28.1542178,19.9476566 C28.1542178,19.9476566 28.6810446,16.72529 28.9364158,13.201949 C28.2042574,13.201949 22.5606931,13.201949 22.5606931,13.201949 C22.5606931,13.201949 22.5606931,9.29225058 22.5606931,8.60696056 C22.5606931,7.92018561 23.4746683,6.99638051 24.3780149,6.99638051 C25.2796683,6.99638051 27.1826782,6.99638051 28.9452574,6.99638051 C28.9452574,6.08139211 28.9452574,2.91990719 28.9452574,9.28074246e-05 C26.5922673,9.28074246e-05 23.9153366,9.28074246e-05 22.7353614,9.28074246e-05 C13.9390198,-0.000371229698 14.1462327,6.72668213 14.1462327,7.73085847 Z" id="Facebook"></path>
                        </g>
                    </g>
                </g>
            </g>
        </g>
    </g>
</svg>