<?xml version="1.0" encoding="UTF-8"?>
<svg width="24px" height="24px" viewBox="0 0 24 24" version="1.1" xmlns="http://www.w3.org/2000/svg" xmlns:xlink="http://www.w3.org/1999/xlink">
    <!-- Generator: sketchtool 50.2 (55047) - http://www.bohemiancoding.com/sketch -->
    <title>C2548D32-0EF9-4ACD-9557-3D8F4E165025</title>
    <desc>Created with sketchtool.</desc>
    <defs></defs>
    <g id="Landing-Page" stroke="none" stroke-width="1" fill="none" fill-rule="evenodd">
        <g id="Landing-Page_UI" transform="translate(-259.000000, -2849.000000)" fill="#0086E6" fill-rule="nonzero">
            <g id="team" transform="translate(201.000000, 2408.000000)">
                <g id="Group-8-Copy-6" transform="translate(0.000000, 90.000000)">
                    <g id="Group-12" transform="translate(58.000000, 351.000000)">
                        <g id="facebook-logo">
                            <path d="M17.6234294,3.0037452 L15.2248841,3 C12.5302007,3 10.7887779,4.73870978 10.7887779,7.42982429 L10.7887779,9.4722699 L8.37714792,9.4722699 C8.16875445,9.4722699 8,9.63668425 8,9.83948691 L8,12.7987578 C8,13.0015605 8.16894687,13.1657876 8.37714792,13.1657876 L10.7887779,13.1657876 L10.7887779,20.6329703 C10.7887779,20.8357729 10.9575324,21 11.1659258,21 L14.312417,21 C14.5208105,21 14.6895649,20.8355857 14.6895649,20.6329703 L14.6895649,13.1657876 L17.5093229,13.1657876 C17.7177163,13.1657876 17.8864708,13.0015605 17.8864708,12.7987578 L17.8876253,9.83948691 C17.8876253,9.74211167 17.8477939,9.64885615 17.7771749,9.57994445 C17.7065558,9.51103274 17.6103446,9.4722699 17.510285,9.4722699 L14.6895649,9.4722699 L14.6895649,7.74086327 C14.6895649,6.9086795 14.8933403,6.48622078 16.0072736,6.48622078 L17.6230445,6.485659 C17.8312456,6.485659 18,6.32124466 18,6.11862926 L18,3.37077494 C18,3.16834681 17.831438,3.00411972 17.6234294,3.0037452 Z" id="Shape"></path>
                        </g>
                    </g>
                </g>
            </g>
        </g>
    </g>
</svg>