<?xml version="1.0" encoding="UTF-8"?>
<svg width="25px" height="19px" viewBox="0 0 25 19" version="1.1" xmlns="http://www.w3.org/2000/svg" xmlns:xlink="http://www.w3.org/1999/xlink">
    <!-- Generator: Sketch 50.2 (55047) - http://www.bohemiancoding.com/sketch -->
    <title>github</title>
    <desc>Created with Sketch.</desc>
    <defs></defs>
    <g id="Symbols" stroke="none" stroke-width="1" fill="none" fill-rule="evenodd">
        <g id="cards-/-team" transform="translate(-190.000000, -354.000000)" fill="#0086E6" fill-rule="nonzero">
            <g id="Group-8-Copy-6">
                <g id="Group-12" transform="translate(58.000000, 351.000000)">
                    <g id="github" transform="translate(132.000000, 0.000000)">
                        <path d="M18.2525,3 C18.5775,3.73163442 18.7880556,4.94680291 18.4738889,5.8364946 C19.7586111,6.92389554 20.2002778,9.56736201 19.58,11.7275698 C21.4111111,11.8660764 23.5922222,11.6609324 25,12.2179879 C23.6838889,12.050293 21.8863889,11.7212365 20.1888889,11.8357867 C19.8672222,11.8575402 19.3908333,11.8236708 19.4141667,12.272234 C21.3791667,12.4250594 23.3319444,12.5916529 24.9452778,13.0908825 C23.345,12.8317677 21.4025,12.4368999 19.4141667,12.3821031 C18.5927778,13.988835 16.9397222,14.7785707 14.6577778,14.9448888 C14.9030556,15.4741328 15.3727778,15.6754217 15.4875,16.5265629 C15.6586111,17.7981804 15.2197222,19.6604474 15.6527778,20.5080089 C15.8605556,20.9141665 16.1991667,20.9249056 16.4275,21.2721359 C15.8686111,21.9277707 14.4830556,21.1983391 14.3252778,20.5080089 C14.055,19.325333 14.7369444,17.4919788 13.9941667,16.6901273 C14.0463889,17.9801941 13.6863889,19.7917947 14.0494444,20.9441808 C14.1925,21.3974252 14.6055556,21.5722795 14.4919444,21.9811907 C11.8941667,22.2425084 12.98,18.6482201 12.5552778,16.5262875 C12.1633333,16.554099 12.3355556,17.1081255 12.3341667,17.3446607 C12.3230556,19.4164775 12.7619444,22.258204 10.5091667,21.9811907 C10.4433333,21.5455695 10.8113889,21.3977006 10.9516667,21.0000791 C11.3625,19.8344756 10.8747222,18.0972225 11.0630556,16.6904027 C10.2033333,17.3330955 11.1533333,19.5761869 10.6205556,20.7263702 C10.3136111,21.3883383 9.32444444,21.676366 8.57416667,21.3809035 C8.67194444,20.8880072 9.18527778,20.9675865 9.40305556,20.5082842 C9.7075,19.8683451 9.40527778,18.9458854 9.51388889,17.9994693 C7.9225,18.3144824 6.68805556,17.9537594 6.08388889,16.9630102 C5.81361111,16.518302 5.74666667,15.9937391 5.42,15.5996974 C5.095,15.2053803 4.57555556,15.1522357 4.425,14.6185859 C6.39583333,14.1482691 6.47138889,16.6292725 8.24138889,16.6904027 C8.78416667,16.7099533 9.06638889,16.5353744 9.56861111,16.4183459 C9.70916667,15.7927256 10.01,15.3259885 10.4536111,14.9994102 C8.25111111,14.7006435 6.43222222,14.0207769 5.58638889,12.3823784 C3.58416667,12.4798563 1.75194444,12.745029 0.055,13.145404 C1.59527778,12.5908268 3.495,12.3920161 5.53138889,12.3267555 C5.41138889,11.6119181 4.35944444,11.8085259 3.70638889,11.836062 C2.4925,11.8889314 0.964722222,12.0384524 0,12.2179879 C1.39833333,11.7237147 3.36055556,11.7853956 5.255,11.7815405 C4.67555556,9.98067901 4.87638889,7.11995264 6.14,6.05458058 C5.78194444,5.1599324 5.89305556,3.69666356 6.36111111,3 C7.77194444,3.06278233 8.6275,3.67270714 9.51388889,4.25482049 C10.6130556,3.94503926 11.7688889,3.79083705 13.275,3.87289466 C13.9083333,3.90759015 14.5669444,4.18983527 15.0441667,4.14522678 C15.5122222,4.10171972 16.0280556,3.5810119 16.4825,3.38220119 C17.0744444,3.12308641 17.5752778,3.02423178 18.2525,3 Z" id="Github__x28_alt_x29_"></path>
                    </g>
                </g>
            </g>
        </g>
    </g>
</svg>