<?xml version="1.0" encoding="UTF-8"?>
<svg width="22px" height="22px" viewBox="0 0 22 22" version="1.1" xmlns="http://www.w3.org/2000/svg" xmlns:xlink="http://www.w3.org/1999/xlink">
    <!-- Generator: Sketch 49.2 (51160) - http://www.bohemiancoding.com/sketch -->
    <title>icon / sidebar / wallet / inactive</title>
    <desc>Created with Sketch.</desc>
    <defs></defs>
    <g id="icon-/-sidebar-/-wallet-/-inactive" stroke="none" stroke-width="1" fill="none" fill-rule="evenodd">
        <g id="wallet" transform="translate(3.000000, 3.000000)" fill="#7F96B0" fill-rule="nonzero">
            <path d="M15.9613694,7.45069851 L15.1893814,7.45069851 L15.1893814,3.92071642 C15.1893814,3.07443582 14.4967688,2.38595821 13.6454054,2.38595821 L12.5998318,2.38595821 L11.5298498,0.473647761 C11.3667748,0.181397015 11.0564324,0 10.7198559,0 C10.562979,0 10.4073514,0.0402149254 10.2699339,0.11601194 L6.16355556,2.38591045 L1.5766967,2.38591045 C0.725333333,2.38591045 0.0327207207,3.07438806 0.0327207207,3.92066866 L0.0327207207,14.4593194 C0.0327207207,15.3056 0.725333333,15.9940776 1.5766967,15.9940776 L13.6454054,15.9940776 C14.4967688,15.9940776 15.1893814,15.3056 15.1893814,14.4593194 L15.1893814,11.3642985 L15.9613694,11.3642985 L15.9613694,7.45069851 Z M13.6454054,2.99983284 C14.1209369,2.99983284 14.5094054,3.35894925 14.5615856,3.8184597 L13.4011291,3.8184597 L12.9434715,2.99983284 L13.6454054,2.99983284 Z M10.4523193,0.975566121 C10.5797517,0.904539244 10.7512401,0.95421603 10.8215942,1.0803833 L12.2233228,3.84967041 L5.35760498,3.84967041 L10.4523193,0.975566121 Z M14.3022462,14.2552879 C14.3022462,14.7433308 13.9026774,15.1405141 13.4117033,15.1405141 L1.81035073,15.1405141 C1.31937665,15.1405141 0.919807808,14.7433308 0.919807808,14.2552879 L0.919807808,4.12474793 C0.919807808,3.63670504 1.31937665,3.23952168 1.81035073,3.23952168 L5.15216141,3.23952168 L3.72852133,4.02649658 L1.99588627,4.02649658 C1.83173558,4.02649658 1.69903863,4.15867678 1.69903863,4.321572 C1.69903863,4.48446722 1.83173558,4.61664741 1.99588627,4.61664741 L2.66080282,4.61664741 L13.5070345,4.61664741 L14.3022462,4.61664741 L14.3022462,7.5183218 L12.1314757,7.5183218 C11.1233854,7.5183218 10.3029552,8.33389978 10.3029552,9.33592575 L10.3029552,9.46282608 C10.3029552,10.464898 11.1234316,11.28043 12.1314757,11.28043 L14.3022462,11.28043 L14.3022462,14.2552879 Z M15.1882402,10.6536155 L15.0449904,10.6536155 L12.376478,10.6536155 C11.7191696,10.6536155 11.1844685,10.1221509 11.1844685,9.46872247 L11.1844685,9.34622679 C11.1844685,8.69284264 11.7191251,8.16133371 12.376478,8.16133371 L15.0449904,8.16133371 L15.1882402,8.16133371 L15.1882402,10.6536155 Z M13.2593874,9.43269254 C13.2593874,9.80718806 12.9542823,10.1104239 12.5775856,10.1104239 C12.2008408,10.1104239 11.8957838,9.8071403 11.8957838,9.43269254 C11.8957838,9.05824478 12.2008889,8.75496119 12.5775856,8.75496119 C12.9543303,8.75491343 13.2593874,9.05848358 13.2593874,9.43269254 Z" id="Shape"></path>
        </g>
    </g>
</svg>