<?xml version="1.0" encoding="UTF-8"?>
<svg width="19px" height="18px" viewBox="0 0 19 18" version="1.1" xmlns="http://www.w3.org/2000/svg" xmlns:xlink="http://www.w3.org/1999/xlink">
    <!-- Generator: Sketch 50.2 (55047) - http://www.bohemiancoding.com/sketch -->
    <title>linkdin</title>
    <desc>Created with Sketch.</desc>
    <defs></defs>
    <g id="Symbols" stroke="none" stroke-width="1" fill="none" fill-rule="evenodd">
        <g id="cards-/-team" transform="translate(-105.000000, -354.000000)" fill="#0086E6" fill-rule="nonzero">
            <g id="Group-8-Copy-6">
                <g id="Group-12" transform="translate(58.000000, 351.000000)">
                    <g id="linkdin" transform="translate(44.000000, 0.000000)">
                        <path d="M22,14.0357857 L22,21 L17.9276848,21 L17.9276848,14.5022068 C17.9276848,12.8699082 17.3386683,11.7559282 15.8646252,11.7559282 C14.7393802,11.7559282 14.0697461,12.5066691 13.7751496,13.2328845 C13.6677183,13.4925037 13.6400654,13.8538596 13.6400654,14.2172739 L13.6400654,21 L9.56638078,21 C9.56638078,21 9.62124492,9.99487107 9.56638078,8.85465764 L13.6396678,8.85465764 L13.6396678,10.5762113 C13.6314073,10.5890872 13.620673,10.6029703 13.6128984,10.615452 L13.6396678,10.615452 L13.6396678,10.5762113 C14.1808438,9.74983577 15.1473274,8.56933056 17.3106178,8.56933056 C19.9907886,8.56928677 22,10.3052053 22,14.0357857 Z M5.30513325,3 C3.91153105,3 3,3.90625836 3,5.09801899 C3,6.26380894 3.88515915,7.19757081 5.25106425,7.19757081 L5.27827545,7.19757081 C6.69886798,7.19757081 7.58234852,6.26398412 7.58234852,5.09801899 C7.55557906,3.90625836 6.69886798,3 5.30513325,3 Z M3.24194115,21 L7.31407966,21 L7.31407966,8.85465764 L3.24194115,8.85465764 L3.24194115,21 Z" id="LinkedIn"></path>
                    </g>
                </g>
            </g>
        </g>
    </g>
</svg>