<?xml version="1.0" encoding="UTF-8"?>
<svg width="190px" height="40px" viewBox="0 0 190 40" version="1.1" xmlns="http://www.w3.org/2000/svg" xmlns:xlink="http://www.w3.org/1999/xlink">
    <!-- Generator: Sketch 50.2 (55047) - http://www.bohemiancoding.com/sketch -->
    <title>logo</title>
    <desc>Created with Sketch.</desc>
    <defs>
        <linearGradient x1="156.070234%" y1="151.755853%" x2="-80.9698997%" y2="-75.6688963%" id="linearGradient-1">
            <stop stop-color="#3F6DF5" offset="0%"></stop>
            <stop stop-color="#29FFE2" offset="100%"></stop>
        </linearGradient>
        <linearGradient x1="194.907111%" y1="175.969222%" x2="-259.128764%" y2="-226.516721%" id="linearGradient-2">
            <stop stop-color="#0000E0" offset="0%"></stop>
            <stop stop-color="#29D5E2" offset="100%"></stop>
        </linearGradient>
        <linearGradient x1="112.016657%" y1="227.333112%" x2="28.7328971%" y2="-6.80836931%" id="linearGradient-3">
            <stop stop-color="#0000E0" offset="0%"></stop>
            <stop stop-color="#29D5E2" offset="100%"></stop>
        </linearGradient>
        <linearGradient x1="161.279253%" y1="156.71266%" x2="-75.78605%" y2="-70.7142187%" id="linearGradient-4">
            <stop stop-color="#3F6DF5" offset="0%"></stop>
            <stop stop-color="#29FFE2" offset="100%"></stop>
        </linearGradient>
        <linearGradient x1="225.355226%" y1="218.248233%" x2="-9.92286336%" y2="-7.44020296%" id="linearGradient-5">
            <stop stop-color="#3F6DF5" offset="0%"></stop>
            <stop stop-color="#29FFE2" offset="100%"></stop>
        </linearGradient>
        <linearGradient x1="90.2027511%" y1="88.59933%" x2="-147.898551%" y2="-139.819809%" id="linearGradient-6">
            <stop stop-color="#3F6DF5" offset="0%"></stop>
            <stop stop-color="#29FFE2" offset="100%"></stop>
        </linearGradient>
    </defs>
    <g id="Landing-Page" stroke="none" stroke-width="1" fill="none" fill-rule="evenodd">
        <g id="Landing-Page_UI" transform="translate(-192.000000, -26.000000)" fill-rule="nonzero">
            <g id="first-screen" transform="translate(192.000000, -521.000000)">
                <g id="header" transform="translate(0.000000, 544.000000)">
                    <g id="logo" transform="translate(0.000000, 3.000000)">
                        <ellipse id="Oval" fill="url(#linearGradient-1)" cx="31.4471111" cy="9.27323944" rx="8.4162963" ry="8.42253521"></ellipse>
                        <path d="M24.5592593,26.7746479 C20.5368889,29.6957746 17.2238519,27.9014085 15.9262222,26.9464789 C17.5621769,29.6937648 17.5022016,33.1312604 15.7714074,35.8197183 C17.1028148,34.9042254 20.474963,33.2338028 24.3931852,36.2929577 C22.4813034,33.3896555 22.547261,29.6093853 24.5592593,26.7746479 Z" id="Shape" fill="url(#linearGradient-2)"></path>
                        <path d="M13.3985185,24.2704225 C10.9074074,20.5464789 12.3260741,17.5098592 13.3056296,16.1014085 C10.6226282,17.5608244 7.36052813,17.4530489 4.77955556,15.8197183 C5.69718519,17.315493 6.98918519,20.6084507 3.93511111,24.3014085 C6.78524941,22.3515573 10.5356915,22.3392773 13.3985185,24.2704225 Z" id="Shape" fill="url(#linearGradient-3)"></path>
                        <path d="M15.9262222,26.9464789 C15.288844,25.8787693 14.4238223,24.965014 13.3928889,24.2704225 C10.5308891,22.3469186 6.78661443,22.3625406 3.94074074,24.3098592 C1.31980131,26.1047538 -0.0683380026,29.2232533 0.35131622,32.3736164 C0.770970442,35.5239795 2.92694761,38.1696734 5.92620144,39.2148018 C8.92545527,40.2599303 12.257188,39.5264993 14.5413333,37.3183099 C17.3484689,34.5994674 17.9205248,30.3064503 15.9234074,26.9464789 L15.9262222,26.9464789 Z" id="Shape" fill="url(#linearGradient-4)"></path>
                        <path d="M15.3266667,2.85352113 C13.2541297,0.617603102 10.1356992,-0.322433808 7.17393043,0.395915272 C4.21216167,1.11426435 1.86980993,3.37876249 1.05015243,6.31615501 C0.230494925,9.25354754 1.06159732,12.4048878 3.22296296,14.5549296 C3.69169618,15.0395232 4.21608277,15.4669077 4.78518519,15.828169 C7.36615776,17.4614996 10.6282578,17.5692751 13.3112593,16.1098592 C13.9732993,15.7503826 14.5831813,15.3021092 15.124,14.7774648 C16.7333929,13.2245174 17.6592362,11.0945732 17.6972577,8.85756961 C17.7352792,6.62056601 16.8823542,4.460344 15.3266667,2.85352113 Z" id="Shape" fill="url(#linearGradient-5)"></path>
                        <path d="M37.4736296,25.8028169 C34.4545469,22.6678166 29.5454569,22.3522779 26.1504182,25.0750014 C22.7553796,27.7977249 21.9935449,32.6611824 24.3931852,36.2929577 C24.6794986,36.7262355 25.004537,37.1325989 25.3642963,37.5070423 C28.6076939,40.7775787 33.8752344,40.8327825 37.1863621,37.6309375 C40.4974897,34.4290924 40.6229787,29.158854 37.468,25.8028169 L37.4736296,25.8028169 Z" id="Shape" fill="url(#linearGradient-6)"></path>
                        <polygon id="Shape" fill="#FFFFFF" points="56.4482963 7.53521127 57.6586667 7.53521127 57.6586667 34.7549296 56.4482963 34.7549296"></polygon>
                        <path d="M82.9863704,15.715493 L82.9863704,34.7549296 L81.8125926,34.7549296 L81.8125926,30.1408451 C80.6388148,33.0760563 78.0013333,34.8732394 74.3702222,34.8732394 C69.5343704,34.8732394 66.4887407,32.1577465 66.4887407,26.9126761 L66.4887407,15.715493 L67.6962963,15.715493 L67.6962963,26.8309859 C67.6962963,31.3802817 70.1536296,33.7633803 74.404,33.7633803 C78.9865185,33.7633803 81.7731852,30.6816901 81.7731852,25.9859155 L81.7731852,15.715493 L82.9863704,15.715493 Z" id="Shape" fill="#FFFFFF"></path>
                        <path d="M123.193185,23.5661972 L123.193185,34.7549296 L121.982815,34.7549296 L121.982815,23.6394366 C121.982815,19.0901408 119.638074,16.7070423 115.643852,16.7070423 C111.061333,16.7070423 108.201481,19.7887324 108.201481,24.484507 L108.201481,34.7549296 L106.991111,34.7549296 L106.991111,23.6394366 C106.991111,19.0901408 104.64637,16.7070423 100.688741,16.7070423 C96.0696296,16.7070423 93.2463704,19.7887324 93.2463704,24.484507 L93.2463704,34.7549296 L92.0444444,34.7549296 L92.0444444,15.715493 L93.2182222,15.715493 L93.2182222,20.3014085 C94.392,17.4028169 97.0660741,15.5690141 100.77037,15.5690141 C104.398667,15.5690141 107.036148,17.3295775 107.880593,20.7408451 C108.981185,17.6591549 111.80163,15.5690141 115.725481,15.5690141 C120.296741,15.5690141 123.193185,18.3098592 123.193185,23.5661972 Z" id="Shape" fill="#FFFFFF"></path>
                        <path d="M147.74963,25.4 L131.071852,25.4 C131.145037,30.3521127 134.700148,33.7633803 139.538815,33.7633803 C142.032741,33.7633803 144.377481,32.8450704 145.844,30.9464789 L146.612444,31.7549296 C144.889778,33.8084507 142.325481,34.8732394 139.538815,34.8732394 C133.931704,34.8732394 129.898074,30.8732394 129.898074,25.2253521 C129.898074,19.5774648 133.703704,15.5690141 138.843556,15.5690141 C143.910222,15.5690141 147.74963,19.4957746 147.74963,25.0704225 L147.74963,25.4 Z M131.108444,24.4084507 L146.612444,24.4084507 C146.330963,19.9352113 143.130519,16.6704225 138.843556,16.6704225 C134.556593,16.6704225 131.364593,19.9352113 131.108444,24.4084507 Z" id="Shape" fill="#FFFFFF"></path>
                        <path d="M152.475704,25.2169014 C152.475704,19.5830986 156.472741,15.5690141 161.823704,15.5690141 C167.174667,15.5690141 171.168889,19.5690141 171.168889,25.2169014 C171.168889,30.8647887 167.2,34.8647887 161.823704,34.8647887 C156.447407,34.8647887 152.475704,30.8647887 152.475704,25.2169014 Z M169.961333,25.2169014 C169.961333,20.1464789 166.479407,16.7070423 161.823704,16.7070423 C157.168,16.7070423 153.688889,20.1549296 153.688889,25.2169014 C153.688889,30.2788732 157.170815,33.7633803 161.826519,33.7633803 C166.482222,33.7633803 169.961333,30.2788732 169.961333,25.2169014 Z" id="Shape" fill="#FFFFFF"></path>
                        <path d="M175.126519,32.3323944 L175.714815,31.3802817 C177.144741,32.6760563 179.709037,33.8028169 182.681481,33.8028169 C186.968444,33.8028169 188.691111,32.1887324 188.691111,29.8422535 C188.691111,23.8253521 175.827407,28.0816901 175.827407,20.6338028 C175.827407,17.9211268 178.025778,15.5633803 182.791259,15.5633803 C185.136,15.5633803 187.703111,16.3352113 189.16963,17.5070423 L188.544741,18.4619718 C187.005037,17.2507042 184.843259,16.6647887 182.754667,16.6647887 C178.797037,16.6647887 177.07437,18.3887324 177.07437,20.5887324 C177.07437,26.7859155 189.901481,22.6056338 189.901481,29.8338028 C189.901481,32.8028169 187.446963,34.8591549 182.644889,34.8591549 C179.526074,34.8647887 176.593037,33.8028169 175.126519,32.3323944 Z" id="Shape" fill="#FFFFFF"></path>
                    </g>
                </g>
            </g>
        </g>
    </g>
</svg>