<?xml version="1.0" encoding="utf-8"?>
<!-- Generator: Adobe Illustrator 22.1.0, SVG Export Plug-In . SVG Version: 6.00 Build 0)  -->
<svg version="1.1" id="Слой_1" xmlns="http://www.w3.org/2000/svg" xmlns:xlink="http://www.w3.org/1999/xlink" x="0px" y="0px"
	 viewBox="0 0 1103 1157.7" style="enable-background:new 0 0 1103 1157.7;" xml:space="preserve">
<style type="text/css">
	.st0{fill:#6F4A90;}
	.st1{fill:#674A8D;}
	.st2{fill:#794992;}
	.st3{fill:#834995;}
	.st4{fill:#744A91;}
	.st5{fill:#684A8E;}
	.st6{fill:#7D4994;}
	.st7{fill:#6B4A8E;}
	.st8{fill:#814995;}
	.st9{fill:#884997;}
	.st10{fill:#644A8C;}
	.st11{fill:#854996;}
	.st12{fill:#C388EB;}
	.st13{fill:#E885EC;}
	.st14{fill:#D586EB;}
</style>
<g>
	<path class="st0" d="M486.3,702c-28.2,13.9-57.4,25.1-88.6,30.1c-11.2-10.7-21.8-21.9-32.5-33.1c-14.9-15.5-29.9-30.8-44.9-46.1
		c-1.8-1.8-2.8-3-0.6-5.6c14.9-17.7,12.1-42.9-6.3-56.9c-2.8-2.1-2.4-3.4-1-6.1c8.9-16.9,17.7-33.9,26.5-50.9
		c16.3,0.3,32.5,1.8,48.4,5.4c13.4,3,26.6,6.8,39.1,12.8c-4.9,16.2-11.7,31.8-17.2,47.8c-1.2,3.7-2.8,4.6-6.8,3.8
		c-14.1-2.7-31.4,8.7-30,27.7c1.6,22,25,32.2,42.8,19.2c2.5-1.8,4.2-1.7,6.5,0.2c6.4,5.3,13.1,10.3,19.6,15.5
		C456.1,677.9,471.2,689.9,486.3,702z"/>
	<path class="st1" d="M958.8,637.9c13.2,11.4,25.2,24.1,36.7,37.3c38.3,43.7,68.8,92.1,88.5,146.9c3.1,8.7,6.4,17.5,8.1,26.7
		c-1.1,1.6-3,1.2-4.5,1.6c-34.9,9-57.8,38.6-57.8,74.7c0,4.7,1.8,9.2,0.9,13.8c-4.8-1.6-6.7-5.9-8.9-9.7c-4.5-7.6-9-15.1-14.2-22.2
		c-14-19.3-30.9-35.5-49.5-50.2c7.6,0.4,15.1,1.5,22.8,0.1c29-5.2,49.3-33.4,44.7-62.5c-4.3-26.6-26.8-46.1-53.9-46.4
		c-3.6,0-4.8-0.9-5-4.7c-0.4-10.6-1.3-21.2-2.1-31.9C962.7,686.9,960.7,662.4,958.8,637.9z"/>
	<path class="st2" d="M190.1,552.9c13.7-1.7,27.4-2.5,41.1-4.6c16.4-2.5,32.6-6,48.8-9.5c18.1-3.9,36.5-5.2,55-5.4
		c0.1,2-1,3.5-1.9,5.1c-7.6,14.6-15.5,29.1-22.8,43.8c-2,4-3.7,4.1-7.5,2.8c-15.4-5.2-29.4-2.2-40.9,9.3
		c-11.5,11.6-14.3,25.8-8.8,41c5.4,15,16.8,23.5,32.8,25.6c-0.8,2.4-1,4.8-1,7.3c0.1,21.4,0,42.9,0,64.3c-8.2-0.5-16.4-1.8-24.4-3.6
		c0.3-1.8-1-2.7-2-3.8c-21.1-24.9-42.1-49.7-63.3-74.5c-2.9-3.3-3.7-5.4,0.1-9.1c22.1-21.8,20.5-59.6-3.3-79.4
		C188.1,558.9,187.5,556.6,190.1,552.9z"/>
	<path class="st2" d="M764.8,542.8c21.1,2.2,41.5,7.3,61.8,13.3c7.9,2.4,15.9,4.8,23.5,8.3c1.7,12.5,3.3,25,5.1,37.4
		c3.8,26.1,7.7,52.2,11.6,78.3c0.4,2.8-0.5,4.1-3.4,4.9c-5.3,1.5-10.1,4.3-14.2,8.1c-12.7,11.9-16.1,26.3-11,42.7
		c0.6,2.1,1.8,4-1.1,5.4c-13.6,6.5-27.2,13.1-40.9,19.7c-2.9-1.2-2.3-3.7-2.3-6c0-27.6,0-55.2,0-82.8c1.2-0.1,2.3-0.2,3.5-0.4
		c13.3-2.2,24-14.6,21.6-30.7c-2-13.3-15.5-23.8-28.8-21.7c-3.7,0.6-4.2-1.2-4.9-3.7C778.3,591.4,771.6,567.1,764.8,542.8z"/>
	<path class="st3" d="M390.7,428.8c-8.1-13.8-13.7-28.7-18.9-43.7c-10.5-29.7-17.3-60.2-21.6-91.3c4-4.1,6.4-9.3,9.4-14
		c12.8-20.6,25.5-41.3,38.2-62c1.3-2.1,2.3-3.9,5.4-2.5c11.8,5.3,24.1,5.6,36.6,2.6c0,15.3,0,30.6,0,46c-0.4,0.3-0.7,0.7-1.1,0.9
		c-26.5,16.4-27,50.9-0.7,67.8c3.3,2.2,1.6,3.6,0.7,5.5C422.7,368.3,406.7,398.5,390.7,428.8z"/>
	<path class="st4" d="M935.9,359.7c-23.1,20.2-41.3,45-63,66.6c-11.1,11-23.1,21-36.2,29.6c-2.4-17.1-4.5-34.2-7.3-51.2
		c-0.7-4.2,0.8-4.8,4-5.8c28.4-8.9,36.9-44.2,15.9-65.2c-11.5-11.5-25.4-13.2-40.5-9.5c-0.4-1.9-1-3.9-1-5.8c0-19.4,0-38.7,0.1-58.1
		c3.2,0.8,6.4,1.6,9.6,2.4c18.7,4.5,37.3,8.9,56,13.3c3,0.7,4,1.5,3.6,5.1c-0.8,6.6-0.8,13.2,0.7,19.8c5.6,24.5,28.9,43.3,52.9,42.5
		c3,0,3.7,1.9,4,4.6C935,351.9,934,356,935.9,359.7z"/>
	<path class="st0" d="M913.6,827.3c-11-5.7-22-11.5-33-17.2c0-16.1,0.1-32.3,0.1-48.4c4.4-1.4,9-2.3,13.1-4.7
		c24.7-14.2,27.6-45.3,5.9-65.3c0-33.4,0.1-66.9,0.1-100.3c17.9,11.1,34.2,24.3,50,38.1c2,1.7,3.9,3.6,5.9,5.3
		c1.1,14.9,2.1,29.8,3.2,44.8c1.6,21.5,3.2,43.1,4.9,64.6c0.2,2.9-0.3,4.2-3.7,4.9c-31,6.7-50.2,37.1-42.1,67.1
		C919.6,821.9,919.8,825.4,913.6,827.3z"/>
	<path class="st5" d="M555.9,653.7c-19.7,19.5-42.3,34.8-67.2,47c-0.7-1.6-2.1-2.5-3.4-3.5c-20.7-16.4-41.4-32.8-62.2-49.1
		c-2.4-1.8-2.5-3.1-1.3-5.7c6.7-13.9,3.3-27.2-9.4-35.6c-2.4-1.6-2.1-2.9-1.4-4.8c1.9-5.1,3.9-10.2,5.7-15.4
		c4-11.2,8.8-22.2,12.1-33.7c9.3,3.6,17.9,8.6,25.9,14.4c12.8,9.3,26.5,16.8,41.3,22.3c-0.3,3.6-1.7,5.3-5.9,5.6
		c-7.1,0.5-12.1,5.3-13.4,11.5c-1.5,6.8,1.1,13.4,6.7,16.9c5.4,3.4,12.4,3.3,17.7-1c2.4-2,3.9-1.3,6,0
		C523.4,633,539.6,643.4,555.9,653.7z"/>
	<path class="st6" d="M835.1,456.8c-17.6,12.8-37,22-57.6,28.9c-8.8,2.9-17.9,4.9-27,6.7c-4.6-16.6-9.1-33.2-13.9-49.8
		c-1-3.5-0.6-5.2,2.8-7c9.4-4.9,14.8-15.3,13.6-25.1c-1.9-15.6-11.9-24.4-28.3-24.8c0-13.1,0-26.1,0-39.2c2.4,0.4,4.9,0.7,7.3,1.1
		c15.8,2.6,31.7,5.4,47.5,7.9c2.6,0.4,3.3,1.5,3.2,3.9c-0.2,3.5-0.3,7,0.9,10.3c1.9,16.5,19,30.8,37,30.9c3.3,0,5.6,0.1,6.1,4.4
		c1.5,12.4,3.1,24.7,5.2,37C832.9,447,832.2,452.3,835.1,456.8z"/>
	<path class="st5" d="M926.7,201.6c10.8-2.6,21.9-3.6,32.9-4.7c19.1-1.9,38.2-1.8,57.3-1.1c2.3,0.1,4.6,0.4,7,0.6
		c0.6,5.9-0.9,11.8-0.3,17.8c3.3,32.4,19.9,54.5,50.1,66.4c1.5,0.6,3.3,0.7,4.3,2.2c-5.3,4.2-11.8,4.9-18,6.3
		c-36.3,8.1-68,25.6-97.2,48.1c-8.5,6.6-16.7,13.7-25,20.6c-0.2-3.5,0.1-7-0.6-10.4c-0.6-3.2,0.6-4.2,3.4-4.6
		c6.1-0.9,12-2.7,17.3-5.9c21.3-12.8,30.3-31.7,27.8-56.2c-2.7-25.7-29.3-48.3-55-46.6c-1.3-0.1-2.7-0.1-4-0.2
		C926.7,223.1,926.7,212.3,926.7,201.6z"/>
	<path class="st2" d="M444.8,502c-20.3-21-38.3-43.7-52.5-69.3c0.2-0.5,0.2-1,0.5-1.4c16.2-30.9,32.5-61.8,48.6-92.8
		c1.5-2.8,3-2.5,5.6-1.9c9.1,2.3,18.1,2.3,26.8-1.9c7.8-2.8,12.9-8.7,17.8-14.9c3,1.2,2.2,3.8,2.2,6c0,17.6,0,35.3,0,52.9
		c-1.7-0.5-3.4-1.1-5.1-1.6c-12.1-3.3-24.8,2.2-30.5,13.1c-5.5,10.6-2.8,24.6,5.8,32.4c2.6,2.3,7.8,2.5,7.6,6.7
		c-0.1,3.5-2.3,6.9-3.5,10.3c-0.2,0.6-0.4,1.3-0.6,1.9C460,461.6,452.4,481.8,444.8,502z"/>
	<path class="st7" d="M951.7,851.9c-6.3-4.4-12.7-8.7-19-13.1c0-1.5-1.1-2.3-1.9-3.4c-8.6-11.3-12.7-23.8-11.2-38.1
		c2.6-25.1,23.4-45.7,50.9-46.4c28.6-0.8,52,22.6,52.7,51.3c0.7,28.8-24.2,53.6-53.3,52.8C963.5,854.7,957.8,852.3,951.7,851.9z"/>
	<path class="st8" d="M145.9,552c7.9,1.3,15.8,0.5,23.8,1c6.8,2.6,13.5,5.5,19.2,10.2c18,15,23.9,39.6,15.1,60.5
		c-9.2,21.9-34,34.7-55.8,31.3c-36.9-5.8-56.4-48.4-35.9-79.7C120.3,562.9,132.1,556.1,145.9,552z"/>
	<path class="st8" d="M728.7,687c-5.2-9.7-7.9-20.4-12.3-30.5c-6.2-14.3-14.7-27.2-25-38.8c2.2-2,4.6-3.8,6.7-5.9
		c2.1-2.1,3.9-2.4,6.5-0.7c2.6,1.8,5.8,2.5,9,2.1c9.1-1.3,14.7-7.9,14.1-16.9c-0.6-8.1-7-13.7-16-13.8c-1.7,0-3.9,0.8-4.8-1.6
		c-4.6-12.8-10.5-25.1-14.3-38.2c22.9-3.6,45.9-3.3,68.8-0.6c7.1,25.2,14.2,50.5,21.3,75.7c0.5,1.7,0.5,2.7-1.3,3.6
		c-13,6.1-19.5,21-12.5,36.3c0.6,1.4,0.9,2.3-0.6,3.3C755.1,669.6,742.4,679.1,728.7,687z"/>
	<path class="st6" d="M807.9,260.3c0,19.4-0.1,38.7-0.1,58.1c0,1.9,0.7,3.9,1,5.8c-13.3,5.7-22.4,14.9-25.5,29.4
		c-23.2-4-46.4-7.9-69.6-12c-14.2-2.5-28.4-5.2-42.6-7.8c23.6-26.4,51.7-47.3,81.6-66c8.7-5.4,17.6-10.8,26.9-15.2
		C788.8,256.2,798.6,257.3,807.9,260.3z"/>
	<path class="st6" d="M446.2,1019.6c9.4-22.8,15.8-46.4,20.8-70.5c9.1-3.8,18.4-7,28.4-6.1c29.3,2.4,49.5,26.5,48.7,54.3
		c-0.9,30.4-30.8,54.9-60.7,49C466.9,1043.1,454.7,1034,446.2,1019.6z"/>
	<path class="st9" d="M349.7,288.9c-2.4-14-3.3-28.1-3.9-42.2c-0.9-24.1-0.6-48.3,2-72.3c4.3-39.8,13.4-78.4,29.1-115.4
		c0.1-0.3,0.4-0.5,0.6-0.8c10.5,5.3,21.6,7.4,33.2,7.6c0,15.2,0,30.5,0,45.7c-0.9,0.4-1.9,0.7-2.8,1c-22,7.8-35.1,23.3-37.7,46.4
		c-2.4,21.4,6.1,38.7,23.8,51.1c3.4,2.4,2.9,4,1.1,6.8c-9.7,15.5-19.1,31.2-28.9,46.6C360.8,272,356.1,281.1,349.7,288.9z"/>
	<path class="st10" d="M688.6,717.8c4.6,21.3,6.7,42.9,7.1,64.6c0.2,9.8,0.8,19.6-0.9,29.3c-13.6,6.5-27.2,13-40.8,19.6
		c-10.8,5.2-21.5,10.4-32.2,15.6c-2-3.9-1.1-8.2-1-12.3c0.4-24-1.2-48.1,0.9-72.1C644,747.7,666.3,732.7,688.6,717.8z"/>
	<path class="st5" d="M493.8,378.6c0-17.6,0-35.3,0-52.9c0-2.2,0.7-4.8-2.2-6c1.2-2.6,2.9-5,3.4-7.7c0.8-4.6,3.7-4.7,7.2-4.1
		c8.4,1.5,16.9,3.2,25.3,4.5c11.8,1.7,23.4,4.8,35.4,5.4c3.9,10.6,5.8,21.6,7.4,32.7c2.7,17.9,3.3,36,0.9,54
		c-0.8,0.1-1.7,0.3-2.5,0.2c-18.1-0.7-36.2-1.4-54.3-2.2c-0.7,0-1.3-0.3-2-0.3c-2.7-0.1-4.2-1.4-4.5-4.2
		C506.7,389.1,501.2,383.1,493.8,378.6z"/>
	<path class="st11" d="M496.9,1130.8c-13.7,9.5-28.2,17.6-43.6,23.9c-18.9,7.6-39.4,0.7-51.3-16.5c-11.6-16.8-10.5-37.6,2.8-53
		c3.9-4.5,7.8-9.1,11.7-13.6c2,0.1,4,0.2,6,0.2c29-0.5,50.7,11.9,65.8,36.5C492.5,1115.2,494.3,1123.1,496.9,1130.8z"/>
	<path class="st11" d="M127.8,686.5c-30.4-14.6-58.5-32.9-84.2-54.8c2.3-2.4,4.6-4.7,7-7.1c18.4-18.4,24.9-40.7,21.3-66.2
		c-1.4-10-5.8-19-10.2-27.9c23.7,11.4,48.8,17.9,74.9,20.9c-0.4,1.9-2.3,1.8-3.5,2.3c-22.9,10.9-35.5,34.5-31.1,59.5
		c3,16.8,12.4,29.4,26.9,38.4c-0.9,2.9-1.1,5.8-1.1,8.8C127.8,669,127.8,677.8,127.8,686.5z"/>
	<path class="st0" d="M506.8,551.2c-22.5-12.7-42.5-28.7-60.2-47.5c1.5-0.8,1.6-2.4,2.1-3.7c8-21.4,16-42.8,23.8-64.3
		c1.8-4.8,2.9-9.3,9.8-7.1c1.8,0.6,4.2-0.6,6.3-0.9c9.5-2,15.1-8.3,18.2-17.1c2.2-6.4,2.8-6.9,10-4.9c-1.8,1.4-1.1,3.4-1.1,5.1
		c0,15.5,0,31-0.1,46.5c0,3,0.2,6,1.1,8.8c-9.9,10.2-9.2,19.3,2.2,27.1c2.1,1.4,1.8,2.8,1.3,4.6c-2.7,10.1-5.5,20.1-8,30.3
		C510.4,535.8,507.3,543.2,506.8,551.2z"/>
	<path class="st1" d="M661.7,642.6c12.7,22.6,21.1,46.9,26.3,72.2c-22.8,15.2-45.6,30.3-68.4,45.5c-6,4-6,4-11.3-1.1
		c-0.8-0.8-1.7-1.6-2.5-2.3c1.2-2,1-4.1,1-6.3c0-17.2,0-34.5,0-51.7c12.2-2.5,16.9-9.1,14.3-20.9c-0.6-2.6,0.6-3.6,2.2-4.9
		c6.9-5.7,13.7-11.5,20.8-16.9C650,651.6,654.9,645.9,661.7,642.6z"/>
	<path class="st4" d="M284.8,732.6c0-21.4,0-42.9,0-64.3c0-2.5,0.2-5,1-7.3c9.7,0.5,18.9-1.2,26.8-7.2c2.3-1.8,3.8-0.8,5.5,1
		c14.2,14.7,28.4,29.4,42.6,44.1c11,11.3,22.1,22.6,33.1,33.9c-11.2,2.2-22.7,2.7-34.1,3.4c-23.6,1.5-47.1-0.5-70.5-2.6
		C287.7,733.4,286.2,732.9,284.8,732.6z"/>
	<path class="st2" d="M486.2,823.6c9.4-31.6,24-60.5,46.4-85c9.1,7.3,18.2,14.5,27.3,21.8c-1.3,2.1-1.2,4.4-1.2,6.7
		c0,25.7-0.1,51.4-0.2,77.1c-3.6-0.7-7.1-2-10.9-1.3c-9.8-0.7-18.6,2.2-25.9,8.5c-3.8,3.3-5.9,2.8-9.1-0.6
		C504.1,841.5,495.1,832.6,486.2,823.6z"/>
	<path class="st3" d="M747.9,492.7c-14.7,2.8-29.8,1.1-44.5,3.9c-9.1,1.7-17.9,4.3-26.7,7.1c-2-5.3-3.9-10.6-6-15.8
		c-0.6-1.5-0.8-2.4,0.7-3.8c6.6-6,8.3-12.5,5.5-19c-2.8-6.4-8.4-9.5-17.1-9.3c0-14.9,0-29.8,0-44.8c12.1,0.5,24.2,1.1,36.3,1.5
		c2.8,0.1,4.1,0.9,4.6,3.8c2.3,13.8,12.5,22.6,26.2,22.2c4.6-0.1,6.2,1.4,7.4,5.6C738.6,460.5,743.3,476.6,747.9,492.7z"/>
	<path class="st9" d="M41.8,629.8c-11.7-9.6-22.6-20.1-32.1-31.9c-21.7-26.9-4-65,27.1-70.8c6.6-1.2,13.5-1.2,20,1.6
		c0.6,1.2,1.2,2.4,1.9,3.5c16.5,26,15.1,58.4-3.4,83.1C51.2,620.6,45.5,624.3,41.8,629.8z"/>
	<path class="st11" d="M724.8,346.5c0,13.1,0,26.1,0,39.2c-11.9,1.9-20.4,8.1-23.5,19.9c-1,3.7-2.4,4.3-5.7,4.1
		c-18.1-0.8-36.1-1.3-54.2-2.3c-6-0.3-12.2,0.3-18.1-1.7c12.1-23.9,26.4-46.3,43.3-67.1c0.6-0.8,1.4-1.4,2.1-2.1
		c2.1,0.4,4.2,0.8,6.3,1.1C691.6,340.7,708.2,343.6,724.8,346.5z"/>
	<path class="st10" d="M1093.6,852.7c3.8,15,6.8,30.1,8.8,45.5c2.2,17-1.7,31.9-15.9,42.6c-13.9,10.5-29.3,12.8-45.6,6.1
		c-2.3-0.9-4.6-2-6.3-3.9c0.3-4.9-1.6-9.4-1.8-14.2c-1-24.7,7.6-45.3,26.7-61.1C1069.3,859.4,1080.4,853.6,1093.6,852.7z"/>
	<path class="st4" d="M926.7,201.6c0,10.8,0,21.5,0.1,32.3c-0.8,0.2-1.6,0.6-2.4,0.7c-21.6,3.1-36.1,15.1-44.2,35
		c-1.5,3.8-3,4.6-6.9,3.6c-16.9-4.3-33.9-8.2-50.8-12.6c-13-3.3-26.2-5.9-39-10c23.6-13,48.4-23.1,73.8-31.8
		c21.2-7.2,42.9-12.6,64.8-16.9C923.7,201.7,925.2,201.7,926.7,201.6z"/>
	<path class="st6" d="M127.8,686.5c0-8.7,0.1-17.5,0-26.2c0-3,0.2-5.9,1.1-8.8c19.9,9.8,39.4,9.6,58.2-2.8c2.5-1.7,3.1,0.3,4.3,1.6
		c16.1,18.9,32.2,37.7,48.1,56.7c5.9,7.1,12.6,13.6,17.5,21.6c-44.1-8-86.5-21.4-126.9-40.9C129.2,687.3,128.5,686.9,127.8,686.5z"
		/>
	<path class="st7" d="M660.2,933.7c-10.1,23.8-22.8,46.2-36.7,67.9c-12,18.6-25.2,36.4-39.7,53.1c-2.8,3.2-6.3,5.7-8.7,9.3
		c-2.2-1.6-1.3-4-1.3-6c-0.1-29.5-0.1-59-0.2-88.5c0.7-0.4,1.4-0.9,2.2-1.2C603.9,956.7,632.1,945.2,660.2,933.7z"/>
	<path class="st2" d="M410.8,111.6c0-15.2,0-30.5,0-45.7c7.5-0.2,14.8-1.2,22-3.5c18.4-5.9,32.4-17.5,42.8-33.6
		c3.2,9.1,2.1,18.3,1.1,27.5c-2.8,26.5,0.3,52.6,6.6,78.4c3.9,15.8,9.3,31,15,46.2c-5.5-0.2-10.6-2.5-16-3.3
		c-3.3-0.5-3.9-2.4-3.4-5.3c4.3-24.5-11.4-50.2-34.1-58.3C433.6,109.7,422.3,109.2,410.8,111.6z"/>
	<path class="st4" d="M439.8,263.8c0-15.3,0-30.6,0-46c5.7-2,11.3-4.1,16-8.1c9.6-6.1,16.3-14.6,20-25.3c1.5-4.4,3.3-5.2,7.5-3.9
		c5.4,1.7,10.9,2.7,16.4,4c2,4.7,4,9.4,6,14.1c-2.8,1.4-2,4-2,6.2c-0.1,33.4-0.1,66.8-0.2,100.2c-5,0.2-7-1.5-6.9-7.2
		c0.3-18.1-12-32.8-30-37.1C457.4,258.4,448.5,260.2,439.8,263.8z"/>
	<path class="st4" d="M573.6,969.4c0,29.5,0.1,59,0.2,88.5c0,2-0.9,4.4,1.3,6c-10.7,13-23.2,24.2-35.8,35.3c-4,3.5-8.3,6.7-12.4,10
		c-1-3-1.2-6.1-1.2-9.3c0.1-20.4,0-40.8,0-61.2c16.9-14.3,24-32.2,20.1-54.1c-0.5-2.7,0.1-4.3,2.9-5.4c4.8-1.9,9.4-4.1,14.2-6.1
		C566.5,971.8,570,970.6,573.6,969.4z"/>
	<path class="st10" d="M1027,197c15.4,0.9,30.8,2.1,45.4,7.4c16.6,6,25.2,19.2,27,36.2c1.6,16.4-3.9,30.4-17.6,40.3
		c-1.1-1.8-3.1-1.7-4.8-2.2c-15.9-5.4-28.8-14.8-38.3-28.9C1027.7,233.7,1025.1,215.9,1027,197z"/>
	<path class="st5" d="M557.6,478.7c-1.5,2.6-1.1,5.5-0.8,8.3c3.1,27.7,10.6,53.8,28.1,76.3c3,3.9,6.1,7.6,10.1,12.4
		c-32.1,0.4-60.2-8.7-86.6-23.8c1.4-1.6,1.6-3.6,2.1-5.5c4.1-15.7,8.2-31.4,12.2-47.1c0.8-3,1.9-4.4,5.5-4.9
		c6.4-0.8,10.8-4.9,12.4-11.4c0.5-1.9,0.6-3.4,3.2-3.4C548.4,479.5,553,479.1,557.6,478.7z"/>
	<path class="st10" d="M694.6,814.8c-1.9,21.9-7.2,43.1-13.4,64.1c-5.2,17.5-12,34.3-19.5,50.9c-7.6,3.1-15.3,6.2-22.9,9.2
		c0-3.5-0.1-7-0.1-10.5c-0.1-28.8-0.1-57.5-0.2-86.3c5.5-2.8,10.8-5.7,16.4-8.3C668.2,827.7,681.1,820.5,694.6,814.8z"/>
	<path class="st6" d="M467.6,945.8c2.9-18.4,5.9-36.8,6.8-55.4c1-21.4,4.9-42.2,10.4-62.8c2.3,0.1,3.3,2,4.7,3.4
		c7.5,7.7,14.9,15.6,22.6,23.1c2.7,2.6,2.7,4.5,0.8,7.5c-7.2,11.9-7.5,24.4-1.9,37.1c3.2,7.2,9.2,12,14.8,17.1
		c-0.8,2.5-1.1,5.1-1,7.7c0.1,9,0,18.1,0,27.1C506.6,938.5,487.6,936.9,467.6,945.8z"/>
	<path class="st9" d="M674,504.8c-17.7,7.7-33.8,17.8-47.3,31.8c-7.3,7.6-13.7,15.9-19.1,24.9c-1.1,1.8-2.2,3.6-3.6,6.1
		c-4.1-7.5-5.7-15.1-7-22.7c-3.8-22.5-3.2-45,1.2-67.4c0.1-0.3,0.3-0.6,0.4-0.9c1,0,2,0.1,3,0c13.8-0.9,27.5-1.8,41.3-2.7
		c2.7-0.2,4.4,0.1,5.4,3.4c1.7,5.2,6.1,9.7,11.3,9.2c7.6-0.7,9.2,3.6,11,9C671.6,498.6,672.8,501.6,674,504.8z"/>
	<path class="st4" d="M899.9,591.4c0,33.4-0.1,66.9-0.1,100.3c-6.1-4.1-12.5-7.4-20.1-8.1c-3.2-0.3-7.5,1.4-9.4-0.9
		c-1.8-2.2-1.3-6.3-1.8-9.6c-5.2-35.8-10.5-71.6-15.7-107.3C869.5,572.4,885,581.3,899.9,591.4z"/>
	<path class="st6" d="M793.8,672.1c0,27.6,0,55.2,0,82.8c0,2.3-0.6,4.8,2.3,6c-1.1,0.7-2.2,1.4-3.3,2.2
		c-26.1-19.9-47.8-43.7-62.5-73.3c1.7-1,3.4-2,5.1-3.1c11.1-7.3,22.1-14.7,33.2-22.1c1.5-1,3-2.9,5.1-0.6
		C779,669.8,786,672,793.8,672.1z"/>
	<path class="st7" d="M503.6,305.2c0-33.4,0.1-66.8,0.2-100.2c0-2.2-0.8-4.8,2-6.2c8.2,16.1,15.9,32.4,25.5,47.7
		c9.1,14.5,16.8,29.7,23.1,45.6c3,7.7,5.4,15.6,8.1,23.4C542.8,312,523.2,308.6,503.6,305.2z"/>
	<path class="st10" d="M498.7,590.5c13.8,3.8,27.7,6.5,42.1,6.5c18.4,0,35.9-3.6,52.8-10.5c1.5-0.6,3-1.2,6-2.4
		c-8.2,27.7-23.4,49.5-42.9,68.6c0.1-2.4-2.1-2.8-3.5-3.8c-14.5-9.4-28.9-18.8-43.5-28c-2.9-1.8-4.3-3.2-3.1-6.9
		c2.1-6.4-0.4-12-5.4-15.8C498.1,595.9,497.4,593.8,498.7,590.5z"/>
	<path class="st0" d="M606.8,698.8c0,17.2,0,34.5,0,51.7c0,2.2,0.1,4.3-1,6.3c-3.6-1.6-6.7-4.4-11-4.1c-9.1-2.5-16.8,0.5-23.1,6.8
		c-3.1,3.1-4.7,2.5-7.6,0.1c-9.7-7.9-19.6-15.4-29.4-23.1c5.8-7.2,12.6-13.3,19.9-18.8c13.6-10.2,25-22.4,34.4-36.5
		c0.4-0.6,1.1-1.1,1.7-1.6C591.5,692.2,595.7,697.2,606.8,698.8z"/>
	<path class="st6" d="M525.7,1038.7c0,20.4,0,40.8,0,61.2c0,3.2,0.2,6.3,1.2,9.3c-6.3,5.5-13,10.5-20,14.9c-0.8,0-1.8-0.3-2.4,0.1
		c-5.1,2.8-6.5,0.2-7.9-4.3c-4-12.5-11.2-23.1-20.8-32.1c0.1-13.3,0.2-26.5,0.3-39.8C493.9,1052.1,510.6,1049.6,525.7,1038.7z"/>
	<path class="st9" d="M688.9,615c-20.3-21.2-44.9-34.4-75.1-40.4c23.2-17.9,48.5-27.1,75.9-31.2c0.5,1.6,0.8,3.2,1.4,4.8
		c4.1,10.7,8.3,21.4,12.5,32.1c0.7,1.8,1.8,3.3-0.6,5.1c-6.3,4.9-7.8,11.3-4.8,18.7c0.8,2,0.8,3.4-0.9,4.8
		C694.5,611,692.2,613.7,688.9,615z"/>
	<path class="st5" d="M516.9,466.1c-0.9-2.9-1.1-5.8-1.1-8.8c0.1-15.5,0-31,0.1-46.5c0-1.7-0.7-3.7,1.1-5.1
		c17.9-0.1,35.9,0.8,53.7,2c-1.1,10.2-3.5,20.2-6.6,30c-3.9,12.4-6.2,25.1-6.4,38.1c-4.5,0.3-8.9,0.7-13.4,1
		c-1.7,0.1-2.9-0.1-3.9-2.1C534.8,463.6,528.7,461.5,516.9,466.1z"/>
	<path class="st9" d="M659.8,411.1c0,14.9,0,29.8,0,44.8c-6.2,2.3-11.3,5.8-12.1,13.1c-0.2,1.9-1.6,1.8-2.9,1.9
		c-15.2,0.9-30.5,1.8-45.7,2.7c4.9-22.3,12.1-43.7,22.7-64C634.4,410.1,647.1,410.6,659.8,411.1z"/>
	<path class="st4" d="M880.7,761.6c0,16.1-0.1,32.3-0.1,48.4c-28.6-11.9-57.2-23.7-82.2-42.6c-1-0.8-2-1.7-2.9-2.6
		c14-6.9,27.9-13.9,41.9-20.8c1.9-1,3.6-2.2,5.5,0.5C852.1,757.6,865,762.8,880.7,761.6z"/>
	<path class="st7" d="M595.1,670.9c7.1-12.7,11.9-26.3,14.5-40.6c2.6-14.3,2.9-28.7,0.7-44.7c22.1,14.3,37.4,32.7,49.6,54.1
		c-12.9,10.4-25.8,20.8-38.6,31.3c-1.8,1.5-3,2.1-4.9,0.2c-2.8-2.8-6.6-3.4-10.5-3.5C601.7,667.5,598.8,670.3,595.1,670.9z"/>
	<path class="st2" d="M423.8,1c19-3.9,38.3,4.3,48,20.3c1,1.7,2,3.4,2.4,5.4c-1.9,0.8-2.4,2.7-3.4,4.1c-11.9,16.7-27.6,27.5-48,30.9
		c0-17.8,0-35.6,0-53.4C422.7,5.8,422.9,3.3,423.8,1z"/>
	<path class="st8" d="M423.8,1c-0.8,2.4-1,4.8-1,7.3c0.1,17.8,0,35.6,0,53.4c-15.4,3-30,0.6-44.1-6c5.1-12.8,11.3-25.1,18.7-36.8
		C403.5,9.3,412.4,3.2,423.8,1z"/>
	<path class="st3" d="M476,1047.9c-0.1,13.3-0.2,26.5-0.3,39.8c-3.2-2.4-6.3-4.9-9.6-7.1c-14.4-9.6-30.5-12.7-47.5-11.9
		c10-14.3,18.6-29.5,25.9-45.3c2.3,2.8,4.5,5.7,6.8,8.4C458.1,1039.5,466.9,1044,476,1047.9z"/>
	<path class="st12" d="M951.7,851.9c6.1,0.4,11.8,2.8,18.1,3c29.2,0.8,54-23.9,53.3-52.8c-0.7-28.6-24.1-52.1-52.7-51.3
		c-27.5,0.8-48.3,21.3-50.9,46.4c-1.5,14.4,2.6,26.8,11.2,38.1c0.8,1,1.9,1.9,1.9,3.4c-2.4-0.8-4.5-1.9-5.9-4c-0.3-0.3-0.7-0.7-1-1
		c0,0,0.1,0.1,0.1,0.1c-4-7.5-4-7.5-9.2-5c-1.3,0.2-2.1-0.7-2.9-1.5c6.1-1.9,6-5.3,4.5-11.1c-8.1-30,11.1-60.4,42.1-67.1
		c3.4-0.7,3.9-2,3.7-4.9c-1.7-21.5-3.3-43.1-4.9-64.6c-1.1-14.9-2.1-29.8-3.2-44.8c1.4,0.7,2.4,1.7,3,3.1c1.9,24.5,3.8,49,5.7,73.5
		c0.8,10.6,1.7,21.2,2.1,31.9c0.2,3.8,1.4,4.7,5,4.7c27.1,0.3,49.7,19.9,53.9,46.4c4.7,29.1-15.7,57.2-44.7,62.5
		c-7.7,1.4-15.2,0.3-22.8-0.1C955.7,855.5,953.3,854.1,951.7,851.9z"/>
	<path class="st13" d="M256.9,728.6c-4.9-8-11.6-14.5-17.5-21.6c-15.9-19-32-37.8-48.1-56.7c-1.1-1.3-1.7-3.2-4.3-1.6
		c-18.8,12.4-38.3,12.6-58.2,2.8c-14.5-8.9-23.9-21.6-26.9-38.4c-4.5-25,8.1-48.5,31.1-59.5c1.2-0.6,3.1-0.4,3.5-2.3
		c3.1,0.2,6.2,0.5,9.4,0.7c-13.8,4.1-25.5,10.9-33.6,23.3c-20.4,31.3-1,73.9,35.9,79.7c21.8,3.4,46.6-9.4,55.8-31.3
		c8.7-20.9,2.9-45.5-15.1-60.5c-5.7-4.8-12.4-7.6-19.2-10.2c2.8,0,5.6,0,8.3,0c2.9,0.3,6,7.6,8.8-0.1c1.1,0,2.2,0,3.3,0
		c-2.6,3.7-2,6,1.8,9.2c23.9,19.9,25.4,57.6,3.3,79.4c-3.8,3.8-3,5.8-0.1,9.1c21.2,24.8,42.2,49.6,63.3,74.5c0.9,1.1,2.3,2.1,2,3.8
		C259.2,728.8,258,728.7,256.9,728.6z"/>
	<path class="st14" d="M393.7,732.6c-11-11.3-22.1-22.5-33.1-33.9c-14.2-14.7-28.4-29.4-42.6-44.1c-1.7-1.8-3.1-2.7-5.5-1
		c-8,6-17.1,7.8-26.8,7.2c-15.9-2.1-27.3-10.6-32.8-25.6c-5.5-15.2-2.7-29.4,8.8-41c11.5-11.5,25.5-14.5,40.9-9.3
		c3.8,1.3,5.5,1.2,7.5-2.8c7.3-14.7,15.2-29.2,22.8-43.8c0.8-1.6,2-3.1,1.9-5.1c1.3-0.8,2.5-0.9,3.8,0.1c-8.8,17-17.6,34-26.5,50.9
		c-1.4,2.6-1.7,3.9,1,6.1c18.4,14.1,21.2,39.2,6.3,56.9c-2.2,2.6-1.2,3.8,0.6,5.6c15,15.3,30.1,30.6,44.9,46.1
		c10.7,11.2,21.4,22.4,32.5,33.1C396.5,733.3,395.1,732.8,393.7,732.6z M253.6,622c-0.8,15.6,11.2,36.1,36,36.3
		c23.8,0.2,36.7-19.6,36.4-36.5c-0.3-20-16.2-36.2-36.2-36.2C269.4,585.5,253.6,601.4,253.6,622z"/>
	<path class="st14" d="M880.7,761.6c-15.8,1.2-28.7-4-38-17.1c-1.9-2.7-3.6-1.5-5.5-0.5c-14,6.9-27.9,13.9-41.9,20.8
		c-1.3,0-2.1-0.7-2.8-1.8c1.1-0.7,2.2-1.4,3.4-2.2c13.6-6.6,27.2-13.2,40.9-19.7c2.9-1.4,1.8-3.3,1.1-5.4
		c-5.1-16.5-1.7-30.8,11-42.7c4.1-3.8,8.8-6.6,14.2-8.1c2.9-0.8,3.8-2,3.4-4.9c-3.9-26.1-7.8-52.2-11.6-78.3
		c-1.8-12.5-3.4-25-5.1-37.4c1,0.2,2.2,0.2,2.8,1.3c5.2,35.8,10.5,71.6,15.7,107.3c0.5,3.3,0,7.4,1.8,9.6c1.9,2.3,6.1,0.6,9.4,0.9
		c7.6,0.7,13.9,4.1,20.1,8.1c21.6,20,18.8,51.1-5.9,65.3C889.7,759.3,885.1,760.2,880.7,761.6z M875.1,758.8
		c19.8,0,36.4-16.2,36.6-35.9c0.3-19.7-16.5-36.8-36.2-37c-19.8-0.2-36.7,16.5-36.8,36.4C838.6,742.3,855,758.8,875.1,758.8z"/>
	<path class="st13" d="M455.8,209.8c-4.7,3.9-10.3,6.1-16,8.1c-12.5,3-24.7,2.7-36.6-2.6c-3.1-1.4-4.2,0.4-5.4,2.5
		c-12.7,20.7-25.4,41.4-38.2,62c-3,4.8-5.4,10-9.4,14c-0.1-1.6-0.3-3.3-0.4-4.9c6.4-7.9,11-16.9,16.5-25.4
		c9.8-15.4,19.3-31.1,28.9-46.6c1.7-2.8,2.2-4.4-1.1-6.8c-17.7-12.4-26.2-29.7-23.8-51.1c2.6-23,15.8-38.6,37.7-46.4
		c0.9-0.3,1.9-0.7,2.8-1c11.5-2.4,22.9-2,34,2.3c0,0.9,0,1.8,0,2.7c-6.2-1.7-12.3-4.3-19-3.7c-28.2-1.5-53,22.8-53,51.9
		c0,29.1,24.6,53.2,53,51.8c10.8,0.6,20-3.8,29-8.9C455.5,208.2,455.7,208.9,455.8,209.8z"/>
	<path class="st12" d="M428.8,552.9c-3.3,11.5-8.1,22.5-12.1,33.7c-1.8,5.2-3.8,10.3-5.7,15.4c-0.7,1.9-1,3.2,1.4,4.8
		c12.7,8.4,16.1,21.7,9.4,35.6c-1.2,2.6-1,3.9,1.3,5.7c20.8,16.3,41.5,32.7,62.2,49.1c1.3,1,2.7,1.9,3.4,3.5
		c-0.5,1.1-1.5,1.1-2.5,1.2c-15.1-12-30.1-24.1-45.2-36.1c-6.5-5.2-13.1-10.2-19.6-15.5c-2.3-1.9-4-2.1-6.5-0.2
		c-17.8,13-41.2,2.8-42.8-19.2c-1.4-19,16-30.4,30-27.7c4.1,0.8,5.6-0.2,6.8-3.8c5.5-16,12.3-31.6,17.2-47.8
		C427.2,551.7,428.3,551.7,428.8,552.9z M398.6,652.9c12.8,0,23.9-10.8,23.9-23.2c0-12.7-11.1-23.8-24-23.9
		c-12.6-0.1-23.7,10.8-23.8,23.5C374.7,642.4,385.3,652.9,398.6,652.9z"/>
	<path class="st13" d="M659.8,411.1c-12.7-0.5-25.4-1-38.1-1.6c0.1-1.4,0.7-2.7,1.6-3.8c5.9,2,12,1.4,18.1,1.7
		c18,1,36.1,1.5,54.2,2.3c3.2,0.1,4.7-0.5,5.7-4.1c3.2-11.9,11.7-18,23.5-19.9c16.4,0.4,26.5,9.2,28.3,24.8
		c1.2,9.7-4.2,20.2-13.6,25.1c-3.5,1.8-3.9,3.5-2.8,7c4.8,16.6,9.3,33.2,13.9,49.8c-0.9,0.1-1.7,0.2-2.6,0.3
		c-4.6-16.1-9.3-32.2-13.6-48.4c-1.1-4.2-2.8-5.8-7.4-5.6c-13.7,0.4-23.9-8.4-26.2-22.2c-0.5-2.9-1.8-3.7-4.6-3.8
		C684,412.3,671.9,411.7,659.8,411.1z M726.6,435.9c13.4,0,24.2-10.5,24-23.4c-0.2-13-10.9-23.7-24-23.7
		c-13.4,0-23.9,11.2-23.7,25.4C703.1,425.9,714,435.9,726.6,435.9z"/>
	<path class="st13" d="M793.8,672.1c-7.8-0.1-14.7-2.3-20.2-8.2c-2.1-2.3-3.6-0.4-5.1,0.6c-11.1,7.3-22.1,14.7-33.2,22.1
		c-1.6,1.1-3.4,2.1-5.1,3.1c-0.8-0.7-1.6-1.5-1.4-2.7c13.7-7.9,26.3-17.4,39.6-25.9c1.6-1,1.2-1.9,0.6-3.3
		c-6.9-15.3-0.4-30.2,12.5-36.3c1.8-0.8,1.8-1.9,1.3-3.6c-7.1-25.2-14.2-50.5-21.3-75.7c1.2-0.6,2.4-0.6,3.3,0.6
		c6.8,24.3,13.5,48.5,20.3,72.8c0.7,2.5,1.2,4.3,4.9,3.7c13.3-2.2,26.8,8.4,28.8,21.7c2.4,16.1-8.3,28.5-21.6,30.7
		C796.1,671.9,794.9,672,793.8,672.1z M792.7,621.8c-12.7,0.1-23.9,11.5-23.8,24.1c0.2,12.6,11.1,23.5,23.7,23.7
		c12.6,0.2,24-11.2,24-23.9C816.6,632.7,805.5,621.7,792.7,621.8z"/>
	<path class="st14" d="M783.4,353.5c3.1-14.5,12.2-23.7,25.5-29.4c15.1-3.7,28.9-2,40.5,9.5c21,21,12.5,56.2-15.9,65.2
		c-3.2,1-4.7,1.6-4,5.8c2.8,17,4.9,34.1,7.3,51.2c-0.2,0.9-0.9,1-1.6,0.9c-2.9-4.5-2.2-9.9-3.1-14.8c-2.1-12.3-3.8-24.6-5.2-37
		c-0.5-4.3-2.9-4.4-6.1-4.4c-18-0.1-35.1-14.4-37-30.9c0.6-0.1,1.3-0.2,1.9-0.4c1.2,0.9,1.2,2.3,1.6,3.6c6.2,17.6,23,27.4,41.4,24
		c20.4-3.8,33.5-24,28.5-44c-5.1-20.6-25.9-32.5-45.9-26.3c-13.6,4.2-21.3,14-25.4,27.1C785,353.7,784.2,353.6,783.4,353.5z"/>
	<path class="st14" d="M783.5,250.7c12.8,4.1,26,6.7,39,10c16.9,4.3,33.9,8.2,50.8,12.6c3.9,1,5.3,0.2,6.9-3.6
		c8.1-19.9,22.6-31.9,44.2-35c0.8-0.1,1.6-0.5,2.4-0.7c1.3,0.1,2.7,0.1,4,0.2c0,0.8,0,1.6,0,2.4c-1,0.1-2,0.2-3,0.3
		c-33.5,2.4-56.5,36.2-45.6,67.8c7.8,22.9,24.7,34.5,48.6,36.4c0,0.8,0,1.6,0,2.4c-24,0.8-47.3-17.9-52.9-42.5
		c-1.5-6.6-1.5-13.3-0.7-19.8c0.4-3.6-0.7-4.4-3.6-5.1c-18.7-4.4-37.3-8.9-56-13.3c-3.2-0.8-6.4-1.6-9.6-2.4c-9.3-3-19.1-4-28.2-7.6
		C780.6,251.2,781.9,250.7,783.5,250.7z"/>
	<path class="st13" d="M476,1047.9c-9.2-3.9-17.9-8.4-24.6-16.2c-2.3-2.7-4.5-5.6-6.8-8.4c-0.1-1.5,0.5-2.7,1.6-3.8
		c8.4,14.4,20.7,23.5,37.2,26.7c29.9,5.9,59.7-18.6,60.7-49c0.9-27.8-19.4-51.9-48.7-54.3c-10-0.8-19.3,2.3-28.4,6.1
		c-0.2-1.2-0.6-2.4,0.6-3.3c19.9-8.8,39-7.3,57.1,4.9c8.2,6.7,14.8,14.6,18.5,24.6c0.9,2.3,1.8,2.6,4,1.7c5-2.2,10.1-4.1,15.2-6.1
		c0.1,0.7,0.3,1.4,0.4,2.1c-4.7,2.1-9.4,4.3-14.2,6.1c-2.7,1.1-3.3,2.7-2.9,5.4c3.8,21.9-3.2,39.9-20.1,54.1
		C510.6,1049.6,493.9,1052.1,476,1047.9z"/>
	<path class="st13" d="M439.8,263.8c8.7-3.7,17.6-5.4,27-2.9c0,0.8,0,1.6,0,2.4c-3.3-0.9-6.6-0.7-9.9-0.7
		c-14.8,0.1-28.8,10.4-33.4,24.7c-4.9,15.1,0.2,31.7,12.4,40.6c11.4,8.3,23.7,9.5,36.8,4.7c0.8,0.4,1.1,1.1,1.1,2
		c-8.7,4.2-17.7,4.1-26.8,1.9c-2.6-0.6-4.1-0.9-5.6,1.9c-16.1,31-32.4,61.9-48.6,92.8c-0.2,0.4-0.3,0.9-0.5,1.4
		c-0.9-1.2-1.6-2.4-1.6-3.9c16-30.2,31.9-60.5,47.9-90.8c1-1.8,2.7-3.3-0.7-5.5c-26.3-16.9-25.8-51.4,0.7-67.8
		C439.1,264.5,439.4,264.1,439.8,263.8z"/>
	<path class="st12" d="M930.7,236.5c0-0.8,0-1.6,0-2.4c25.7-1.7,52.3,21,55,46.6c2.5,24.6-6.5,43.5-27.8,56.2
		c-5.3,3.2-11.2,5-17.3,5.9c-2.8,0.4-4,1.4-3.4,4.6c0.6,3.4,0.4,6.9,0.6,10.4c-0.2,1-0.9,1.6-1.8,2c-2-3.7-0.9-7.8-1.3-11.7
		c-0.2-2.6-0.9-4.5-4-4.6c0-0.8,0-1.6,0-2.4c17.2-0.7,31.4-7.1,42.3-20.9c16.4-20.8,12.7-54.2-7.9-71
		C955,240.9,943.5,237,930.7,236.5z"/>
	<path class="st14" d="M488.7,427.7c-2.1,0.4-4.5,1.5-6.3,0.9c-6.8-2.2-8,2.2-9.8,7.1c-7.8,21.5-15.9,42.9-23.8,64.3
		c-0.5,1.4-0.6,3-2.1,3.7c-0.9-0.3-1.5-0.9-1.9-1.8c7.6-20.2,15.2-40.4,22.7-60.6c0.2-0.6,0.4-1.3,0.6-1.9c1.2-3.4,3.4-6.8,3.5-10.3
		c0.1-4.3-5-4.4-7.6-6.7c-8.6-7.8-11.3-21.8-5.8-32.4c5.6-10.9,18.4-16.4,30.5-13.1c0,0.9-0.4,1.7-1.3,2c-1.7-0.1-3.3-0.2-5-0.3
		c-18.4-0.3-30.1,18.8-21.4,35c5.2,9.6,14.3,13.5,27.6,11.8C488.7,426.2,488.7,427,488.7,427.7z"/>
	<path class="st12" d="M516.9,466.1c11.8-4.6,18-2.4,23.5,8.6c1,2,2.2,2.2,3.9,2.1c4.5-0.3,8.9-0.7,13.4-1c0,1,0,2,0,3
		c-4.6,0.3-9.3,0.8-13.9,0.9c-2.6,0.1-2.7,1.5-3.2,3.4c-1.6,6.4-6,10.5-12.4,11.4c-3.6,0.4-4.7,1.8-5.5,4.9
		c-4,15.7-8.1,31.4-12.2,47.1c-0.5,1.9-0.7,4-2.1,5.5c-0.5-0.2-1-0.5-1.5-0.7c0.5-8,3.6-15.4,5.4-23.1c2.4-10.1,5.3-20.2,8-30.3
		c0.5-1.9,0.8-3.2-1.3-4.6C507.6,485.4,507,476.3,516.9,466.1z M538,479.5c0.1-7.4-5.1-12.7-12.4-12.8c-6.9-0.1-12.9,5.8-12.8,12.6
		c0,6.7,5.7,12.3,12.4,12.5C532.5,492,537.9,486.8,538,479.5z"/>
	<path class="st13" d="M525.8,915.8c-5.6-5.1-11.6-9.9-14.8-17.1c-5.5-12.7-5.3-25.1,1.9-37.1c1.8-3.1,1.9-4.9-0.8-7.5
		c-7.7-7.5-15-15.4-22.6-23.1c-1.3-1.4-2.4-3.3-4.7-3.4c-0.3-1.6,0.5-2.8,1.4-3.9c8.9,9,17.9,17.9,26.5,27.2
		c3.2,3.5,5.3,3.9,9.1,0.6c7.3-6.3,16.1-9.2,25.9-8.5c0,0.8,0,1.6,0,2.3c-1.2,0.1-2.3,0.2-3.5,0.3c-26.9,1.3-43.1,31.4-29.2,54.4
		c7.4,12.4,18.5,18,32.7,18.3c0,0.8,0,1.6,0,2.4C539.8,921.8,532.9,918.3,525.8,915.8z"/>
	<path class="st12" d="M594.7,752.8c4.3-0.3,7.4,2.5,11,4.1c0.8,0.8,1.7,1.5,2.5,2.3c5.3,5,5.3,5,11.3,1.1
		c22.8-15.2,45.6-30.3,68.4-45.5c1,0.8,0.7,2,0.6,3c-22.3,14.9-44.6,29.8-67,44.7c-7.2,4.1-7.2,4.1-5.8,12.1
		c2.5,14-7.1,27.6-21.2,29.9c0-0.8-0.1-1.6-0.1-2.3c1.4-0.5,2.8-1,4.2-1.6c11.5-4.6,17.8-17.9,13.6-29.5c-3-8.4-9.3-13.5-17.7-16.1
		C594.7,754.3,594.7,753.6,594.7,752.8z"/>
	<path class="st12" d="M473.7,334.6c0-0.9-0.3-1.6-1.1-2c1.3-0.8,2.5-1.5,3.8-2.3c15.5-9.5,21.9-28.1,15.2-45
		c-4.6-11.5-13.4-18.3-24.9-22c0-0.8,0-1.6,0-2.4c18,4.3,30.2,19,30,37.1c-0.1,5.6,1.9,7.4,6.9,7.2c19.6,3.4,39.2,6.9,58.8,10.3
		c0.1,0.8,0.2,1.5,0.3,2.3c-12-0.6-23.6-3.7-35.4-5.4c-8.5-1.2-16.9-3-25.3-4.5c-3.5-0.6-6.3-0.6-7.2,4.1c-0.5,2.7-2.2,5.2-3.4,7.7
		C486.6,325.9,481.5,331.8,473.7,334.6z"/>
	<path class="st12" d="M498.7,590.5c-1.4,3.3-0.7,5.4,2.5,7.8c5.1,3.8,7.6,9.4,5.4,15.8c-1.2,3.7,0.2,5.1,3.1,6.9
		c14.6,9.2,29.1,18.6,43.5,28c1.4,0.9,3.6,1.3,3.5,3.8c-0.3,0.3-0.6,0.7-0.9,1c-16.2-10.4-32.5-20.7-48.7-31.2c-2.1-1.4-3.6-2-6,0
		c-5.3,4.3-12.3,4.4-17.7,1c-5.5-3.5-8.1-10.1-6.7-16.9c1.3-6.2,6.3-11,13.4-11.5c4.2-0.3,5.5-2,5.9-5.6
		C497,589.7,498,589.5,498.7,590.5z M504,610.9c0-7.6-5.5-13.2-12.6-13.1c-6.9,0.1-12.6,6-12.5,13c0.1,6.6,5.9,12.1,12.7,12.2
		C498.8,623,504,617.9,504,610.9z"/>
	<path class="st13" d="M599,473.6c15.2-0.9,30.5-1.8,45.7-2.7c1.3-0.1,2.7-0.1,2.9-1.9c0.9-7.3,5.9-10.7,12.1-13.1
		c8.7-0.2,14.4,2.8,17.1,9.3c2.8,6.5,1.1,13-5.5,19c-1.5,1.4-1.3,2.2-0.7,3.8c2.1,5.2,4,10.5,6,15.8c-0.6,1.1-1.6,1.1-2.7,1
		c-1.1-3.1-2.4-6.2-3.4-9.4c-1.7-5.4-3.3-9.7-11-9c-5.2,0.5-9.6-4-11.3-9.2c-1.1-3.2-2.7-3.6-5.4-3.4c-13.8,1-27.5,1.8-41.3,2.7
		c-1,0.1-2,0-3,0C598.8,475.6,598.9,474.6,599,473.6z M650.5,471.3c0.1,7.7,4.9,12.5,12.3,12.5c7.1,0,12.8-5.7,12.7-12.6
		c-0.1-6.5-6.4-12.6-13.1-12.5C655.5,458.9,650.4,464.2,650.5,471.3z"/>
	<path class="st12" d="M595.1,670.9c3.7-0.7,6.6-3.5,10.7-3.3c4,0.1,7.7,0.7,10.5,3.5c2,2,3.1,1.3,4.9-0.2
		c12.8-10.5,25.7-20.8,38.6-31.3c1.1,0.6,1.9,1.5,1.9,2.9c-6.8,3.3-11.8,9-17.7,13.5c-7.1,5.4-13.9,11.3-20.8,16.9
		c-1.6,1.3-2.7,2.4-2.2,4.9c2.6,11.8-2.1,18.4-14.3,20.9c-11-1.6-15.2-6.6-16-19.2c0,0,0,0.1,0,0.1c1.1-0.4,0.9-1.4,1.1-2.2
		C592,674.9,593.9,673.1,595.1,670.9z M618.9,683.2c0-7.3-5.3-12.6-12.6-12.6c-7,0.1-12.7,5.9-12.6,12.8c0.1,6.7,5.8,12.3,12.5,12.4
		C613.4,695.8,618.9,690.3,618.9,683.2z"/>
	<path class="st13" d="M688.9,615c3.3-1.3,5.7-4,8.4-6.1c1.8-1.4,1.8-2.8,0.9-4.8c-3-7.4-1.5-13.8,4.8-18.7c2.4-1.9,1.3-3.3,0.6-5.1
		c-4.2-10.7-8.4-21.4-12.5-32.1c-0.6-1.5-1-3.2-1.4-4.8c0.8-0.9,1.9-0.8,3-0.6c3.8,13.1,9.7,25.4,14.3,38.2c0.9,2.4,3,1.5,4.8,1.6
		c9,0.1,15.5,5.6,16,13.8c0.6,8.9-4.9,15.6-14.1,16.9c-3.2,0.4-6.4-0.3-9-2.1c-2.6-1.8-4.4-1.5-6.5,0.7c-2.1,2.1-4.4,4-6.7,5.9
		C690.6,616.8,689.7,615.9,688.9,615z M724.8,598c0.1-7.1-5.4-12.8-12.3-13c-6.2-0.2-12.8,6.4-12.8,12.8c0,6.9,5.7,12.8,12.5,12.9
		C719.1,610.7,724.8,605,724.8,598z"/>
	<path class="st14" d="M455.8,209.8c0-0.8-0.2-1.6-1.1-2.1c0.9-0.8,1.7-1.6,2.6-2.3c16.6-13.1,23.5-36,17-56.2
		c-5-15.4-15.3-25.8-29.5-32.7c0-0.9,0-1.8,0-2.7c22.7,8.1,38.4,33.8,34.1,58.3c-0.5,2.9,0.1,4.8,3.4,5.3c5.4,0.8,10.5,3.2,16,3.3
		c0.9,1.1,1.5,2.3,1.5,3.8c-5.5-1.3-11.1-2.3-16.4-4c-4.2-1.3-6-0.6-7.5,3.9C472.1,195.2,465.4,203.7,455.8,209.8z"/>
	<path class="st14" d="M594.7,752.8c0,0.8,0,1.5,0,2.3c-6.3-0.9-12.3,0.1-17.6,3.8c-9.7,6.7-13.4,17.9-9.5,27.8
		c4.4,11.2,14.6,17.1,27,15.6c0,0.8,0.1,1.6,0.1,2.3c-22.8,3.5-36.9-17-29-36.6c0.7-1.8,0.8-3-1-4.1c-1.7-1-3.2-2.3-4.8-3.5
		c-9.1-7.3-18.2-14.5-27.3-21.8c0.2-1.2,0.8-1.8,2-2c9.8,7.7,19.7,15.2,29.4,23.1c2.9,2.4,4.5,2.9,7.6-0.1
		C577.9,753.3,585.6,750.3,594.7,752.8z"/>
	<path class="st13" d="M785.6,369.4c-0.6,0.1-1.3,0.2-1.9,0.4c-1.3-3.4-1.1-6.9-0.9-10.3c0.1-2.4-0.5-3.5-3.2-3.9
		c-15.9-2.5-31.7-5.2-47.5-7.9c-2.4-0.4-4.9-0.7-7.3-1.1c-16.6-2.9-33.1-5.9-49.7-8.8c-2.1-0.4-4.2-0.8-6.3-1.1
		c0.8-0.9,1.6-1.9,2.5-2.8c14.2,2.6,28.4,5.3,42.6,7.8c23.2,4.1,46.4,8,69.6,12c0.8,0.1,1.6,0.2,2.4,0.2
		C785.9,359,784.5,364.2,785.6,369.4z"/>
	<path class="st12" d="M1093.6,852.7c-13.2,0.9-24.3,6.7-34.2,14.8c-19.1,15.8-27.7,36.4-26.7,61.1c0.2,4.8,2.1,9.4,1.8,14.2
		c-1.3-0.1-2.2-0.7-2.8-2c-0.2-0.8,0.1-1.9-1.1-2.2c0,0,0,0.1,0,0.1c0.9-4.7-0.9-9.2-0.9-13.8c0-36.1,22.8-65.7,57.8-74.7
		c1.5-0.4,3.4,0,4.5-1.6C1093.2,849.8,1093.7,851.1,1093.6,852.7z"/>
	<path class="st12" d="M488.7,427.7c0-0.7,0-1.5,0-2.2c1.5-0.8,2.9-1.5,4.4-2.3c10-5.5,14.6-17,11.2-27.9c-2.6-8.5-9-13.1-16.8-16.3
		c0.9-0.4,1.3-1.1,1.3-2c1.7,0.5,3.4,1.1,5.1,1.6c7.4,4.5,12.9,10.5,14.1,19.5c0.4,2.8,1.8,4.1,4.5,4.2c0.7,0,1.3,0.3,2,0.3
		c18.1,0.7,36.2,1.5,54.3,2.2c0.8,0,1.7-0.2,2.5-0.2c-0.2,1.1-0.3,2.2-0.5,3.2c-17.9-1.2-35.8-2.1-53.7-2c-7.2-2-7.8-1.5-10,4.9
		C503.8,419.4,498.3,425.6,488.7,427.7z"/>
	<path class="st13" d="M418.7,1068.7c17-0.8,33.1,2.4,47.5,11.9c3.3,2.2,6.4,4.7,9.6,7.1c9.6,9,16.8,19.6,20.8,32.1
		c1.5,4.6,2.9,7.2,7.9,4.3c0.6-0.3,1.6-0.1,2.4-0.1c-2.9,2.9-6.2,5.1-10,6.6c-2.6-7.6-4.4-15.6-8.7-22.6
		c-15.1-24.5-36.8-37-65.8-36.5c-2,0-4-0.1-6-0.2C416.8,1070.3,417.4,1069.2,418.7,1068.7z"/>
	<path class="st13" d="M41.8,629.8c3.8-5.4,9.4-9.1,13.4-14.5c18.5-24.8,19.9-57.1,3.4-83.1c-0.7-1.1-1.2-2.3-1.9-3.5
		c1.9,0,3.6,0.4,4.9,1.8c4.4,8.9,8.8,17.8,10.2,27.9c3.7,25.5-2.8,47.8-21.3,66.2c-2.3,2.3-4.7,4.7-7,7.1
		C42.7,631.3,42,630.8,41.8,629.8z"/>
	<path class="st12" d="M1027,197c-1.9,18.9,0.6,36.7,11.6,52.9c9.5,14,22.4,23.4,38.3,28.9c1.7,0.6,3.7,0.5,4.8,2.2
		c-0.9,1.2-2.1,1.9-3.6,1.9c-1-1.6-2.8-1.6-4.3-2.2c-30.2-11.9-46.9-34-50.1-66.4c-0.6-6,0.9-11.9,0.3-17.8
		C1025.2,195.3,1026,196.5,1027,197z"/>
	<path class="st13" d="M378.6,55.7c14.1,6.5,28.7,9,44.1,6c20.5-3.4,36.1-14.2,48-30.9c1-1.4,1.5-3.4,3.4-4.1
		c0.4,0.7,0.9,1.5,1.3,2.2c-10.4,16.1-24.3,27.8-42.8,33.6c-7.1,2.3-14.5,3.3-22,3.5c-11.6-0.2-22.8-2.4-33.2-7.6
		C377.8,57.4,377.6,56.3,378.6,55.7z"/>
	<path class="st12" d="M562.9,973c-0.1-0.7-0.3-1.4-0.4-2.1c2.2-1,4.4-2.1,6.7-3.1c7.3-3.4,15.2-5.4,22.1-9.7
		c16.2-5.5,31.9-12.3,47.6-19c7.6-3.1,15.3-6.2,22.9-9.2c0.2,1.6-0.2,2.9-1.6,3.8c-28.1,11.5-56.2,23-84.4,34.5
		c-0.8,0.3-1.5,0.8-2.2,1.2C570,970.6,566.5,971.8,562.9,973z"/>
	<path class="st12" d="M694.6,814.8c-13.6,5.7-26.4,13-39.7,19.3c-5.5,2.6-10.9,5.5-16.4,8.3c-8,3.8-15.9,7.5-23.9,11.3
		c0-0.8-0.3-1.5-1.1-1.9c2.7-1.6,5.4-3.2,8.2-4.8c10.7-5.2,21.5-10.4,32.2-15.6c13.6-6.5,27.2-13,40.8-19.6
		C696.2,812.8,694.9,813.8,694.6,814.8z"/>
	<path class="st6" d="M916.5,828.8c5.2-2.4,5.2-2.4,9.2,5C922.1,833.1,919.4,830.9,916.5,828.8z"/>
	<path class="st9" d="M186.8,552.8c-2.8,7.8-5.9,0.4-8.8,0.1C180.9,552.9,183.8,552.9,186.8,552.8z"/>
	<path class="st1" d="M1030.7,938.8c1.2,0.3,0.9,1.4,1.1,2.2C1031.2,940.4,1029.6,940.2,1030.7,938.8z"/>
	<path class="st0" d="M591.7,677.5c-0.2,0.8,0.1,1.9-1.1,2.2C590.5,678.8,590.9,678,591.7,677.5z"/>
	<path class="st6" d="M925.7,833.7c0.3,0.3,0.7,0.7,1,1C926.2,834.6,925.6,834.5,925.7,833.7z"/>
	<path class="st0" d="M621.8,846.9c-2.7,1.6-5.4,3.2-8.2,4.8c-9.1,4.3-18.3,8.6-27.4,13c-2.4,1.2-4,1.2-5.2-1.4
		c-4.7-9.7-12.9-15.3-22.5-19.2c0.1-25.7,0.1-51.4,0.2-77.1c0-2.3-0.1-4.7,1.2-6.7c1.6,1.2,3.1,2.5,4.8,3.5c1.8,1.1,1.7,2.3,1,4.1
		c-7.9,19.6,6.3,40.1,29,36.6c14.1-2.3,23.7-15.9,21.2-29.9c-1.5-8-1.5-8,5.8-12.1c-2.1,24-0.4,48.1-0.9,72.1
		C620.7,838.8,619.8,843,621.8,846.9z"/>
	<path class="st14" d="M558.6,844.2c9.6,3.9,17.8,9.5,22.5,19.2c1.2,2.6,2.8,2.5,5.2,1.4c9.1-4.5,18.2-8.7,27.4-13
		c0.8,0.4,1,1.1,1.1,1.9c-8.7,4.4-17.3,8.9-26,13.3c-3.9,0.8-5.4,2.8-4.1,7c1.8,5.5,1.1,11.2,0,16.8c-3.5,16.9-20.4,30.6-36.9,30
		c0-0.8,0-1.6,0-2.4c0.8-0.1,1.6-0.3,2.5-0.4c21.9-2.2,36.7-23.1,31.6-44.4c-3.7-15.5-15.9-25.6-34.1-28.2c0-0.8,0-1.6,0-2.3
		C551.5,842.2,555,843.5,558.6,844.2z"/>
	<path class="st7" d="M588.8,866.9c8.7-4.4,17.3-8.9,26-13.3c8-3.8,15.9-7.5,23.9-11.3c0.1,28.8,0.1,57.5,0.2,86.3
		c0,3.5,0,7,0.1,10.5c-15.7,6.8-31.4,13.5-47.6,19c-1.5-0.9-1.4-2.5-1.4-4c-0.1-25.5,0.5-51-0.9-76.6
		C588.6,874,590.1,870.4,588.8,866.9z"/>
	<path class="st4" d="M588.8,866.9c1.3,3.6-0.1,7.2,0.1,10.7c1.4,25.5,0.8,51,0.9,76.6c0,1.5-0.1,3,1.4,4
		c-6.9,4.3-14.8,6.3-22.1,9.7c-2.2,1-4.4,2.1-6.7,3.1c-5.1,2-10.2,3.9-15.2,6.1c-2.2,0.9-3.2,0.6-4-1.7c-3.7-10-10.3-17.9-18.5-24.6
		c0-9,0.1-18.1,0-27.1c0-2.7,0.3-5.2,1-7.7c7.1,2.5,14,6.1,22,4.8c16.5,0.7,33.5-13.1,36.9-30c1.1-5.6,1.8-11.3,0-16.8
		C583.3,869.7,584.8,867.7,588.8,866.9z"/>
	<path class="st4" d="M253.6,622c0-20.6,15.8-36.5,36.2-36.4c20,0.1,35.9,16.3,36.2,36.2c0.3,16.9-12.7,36.7-36.4,36.5
		C264.8,658.1,252.8,637.6,253.6,622z"/>
	<path class="st4" d="M875.1,758.8c-20.1,0-36.5-16.5-36.4-36.6c0.1-19.9,17-36.6,36.8-36.4c19.7,0.2,36.5,17.3,36.2,37
		C911.5,742.6,894.9,758.8,875.1,758.8z"/>
	<path class="st8" d="M425.8,216.7c-28.4,1.4-53.1-22.7-53-51.8c0-29.1,24.9-53.5,53-51.9C425.8,147.5,425.8,182.1,425.8,216.7z"/>
	<path class="st2" d="M425.8,216.7c0-34.6,0-69.1,0-103.7c6.7-0.6,12.8,2,19,3.7c14.3,6.9,24.6,17.3,29.5,32.7
		c6.5,20.1-0.4,43.1-17,56.2c-0.9,0.7-1.7,1.5-2.6,2.3C445.7,212.8,436.5,217.3,425.8,216.7z"/>
	<path class="st0" d="M398.6,652.9c-13.4,0-24-10.5-23.8-23.7c0.1-12.6,11.2-23.6,23.8-23.5c12.9,0.1,24,11.2,24,23.9
		C422.6,642.1,411.4,652.9,398.6,652.9z"/>
	<path class="st8" d="M726.6,435.9c-12.5,0-23.4-10.1-23.6-21.7c-0.2-14.2,10.2-25.5,23.7-25.4c13,0,23.8,10.7,24,23.7
		C750.8,425.4,740,436,726.6,435.9z"/>
	<path class="st6" d="M792.7,621.8c12.8-0.1,23.9,11,23.9,23.9c0,12.7-11.4,24.1-24,23.9c-12.7-0.2-23.6-11.1-23.7-23.7
		C768.7,633.2,779.9,621.9,792.7,621.8z"/>
	<path class="st2" d="M785.6,369.4c-1-5.2,0.4-10.4,0.2-15.7c4.1-13.1,11.8-22.9,25.4-27.1c19.9-6.2,40.7,5.7,45.9,26.3
		c5,20-8.1,40.3-28.5,44c-18.3,3.4-35.1-6.4-41.4-24C786.8,371.7,786.8,370.3,785.6,369.4z"/>
	<path class="st0" d="M930.7,236.5c12.8,0.6,24.3,4.4,34.4,12.7c20.6,16.8,24.4,50.2,7.9,71c-10.9,13.8-25.1,20.2-42.3,20.9
		c-23.9-1.9-40.8-13.6-48.6-36.4c-10.9-31.7,12.1-65.4,45.6-67.8C928.8,236.7,929.7,236.6,930.7,236.5z"/>
	<path class="st2" d="M466.7,263.4c11.5,3.7,20.3,10.5,24.9,22c6.7,16.9,0.4,35.6-15.2,45c-1.3,0.8-2.5,1.5-3.8,2.3
		c-13.1,4.7-25.4,3.6-36.8-4.7c-12.2-8.9-17.3-25.5-12.4-40.6c4.6-14.3,18.6-24.6,33.4-24.7C460.1,262.7,463.4,262.5,466.7,263.4z"
		/>
	<path class="st4" d="M487.4,379c7.8,3.1,14.2,7.7,16.8,16.3c3.4,10.9-1.2,22.4-11.2,27.9c-1.4,0.8-2.9,1.6-4.4,2.3
		c-13.3,1.7-22.5-2.1-27.6-11.8c-8.7-16.2,3-35.3,21.4-35C484.1,378.7,485.7,378.9,487.4,379z"/>
	<path class="st7" d="M538,479.5c-0.1,7.3-5.5,12.5-12.8,12.3c-6.8-0.2-12.4-5.8-12.4-12.5c0-6.8,5.9-12.7,12.8-12.6
		C532.9,466.8,538.1,472.1,538,479.5z"/>
	<path class="st4" d="M547.7,845.2c18.2,2.6,30.3,12.6,34.1,28.2c5.1,21.3-9.7,42.2-31.6,44.4c-0.8,0.1-1.6,0.3-2.5,0.4
		c-14.2-0.3-25.3-5.9-32.7-18.3c-13.8-23,2.3-53.2,29.2-54.4C545.4,845.5,546.6,845.3,547.7,845.2z"/>
	<path class="st0" d="M594.6,802.2c-12.4,1.5-22.6-4.4-27-15.6c-3.9-9.9-0.2-21.1,9.5-27.8c5.3-3.6,11.2-4.7,17.6-3.8
		c8.4,2.6,14.6,7.7,17.7,16.1c4.2,11.6-2.1,24.9-13.6,29.5C597.4,801.2,596,801.7,594.6,802.2z"/>
	<path class="st5" d="M504,610.9c0,7-5.3,12.1-12.5,12c-6.8,0-12.6-5.6-12.7-12.2c-0.1-6.9,5.7-12.9,12.5-13
		C498.6,597.6,504,603.3,504,610.9z"/>
	<path class="st9" d="M650.5,471.3c-0.1-7.1,5-12.4,12-12.6c6.7-0.1,13,5.9,13.1,12.5c0.1,6.9-5.7,12.6-12.7,12.6
		C655.4,483.9,650.6,479,650.5,471.3z"/>
	<path class="st0" d="M618.9,683.2c0,7.1-5.5,12.6-12.6,12.6c-6.7,0-12.4-5.7-12.5-12.4c-0.1-6.9,5.6-12.7,12.6-12.8
		C613.6,670.5,618.9,675.9,618.9,683.2z"/>
	<path class="st11" d="M724.8,598c-0.1,7-5.8,12.7-12.6,12.7c-6.8-0.1-12.5-5.9-12.5-12.9c0-6.4,6.6-13,12.8-12.8
		C719.4,585.1,724.9,590.9,724.8,598z"/>
</g>
</svg>
