<?xml version="1.0" encoding="UTF-8"?>
<svg width="20px" height="16px" viewBox="0 0 20 16" version="1.1" xmlns="http://www.w3.org/2000/svg" xmlns:xlink="http://www.w3.org/1999/xlink">
    <!-- Generator: Sketch 50.2 (55047) - http://www.bohemiancoding.com/sketch -->
    <title>github</title>
    <desc>Created with Sketch.</desc>
    <defs></defs>
    <g id="Symbols" stroke="none" stroke-width="1" fill="none" fill-rule="evenodd">
        <g id="cards-/-team" transform="translate(-211.000000, -355.000000)" fill="#0086E6" fill-rule="nonzero">
            <g id="Group-8-Copy-6">
                <g id="Group-12" transform="translate(40.000000, 351.000000)">
                    <g id="github" transform="translate(169.000000, 0.000000)">
                        <path d="M4.37166667,7.26381527 C4.39666667,7.01611126 4.3025,6.77176594 4.11916667,6.60551036 L2.2525,4.33838887 L2.2525,4 L8.05,4 L12.5316667,13.9039622 L16.4716667,4 L22,4 L22,4.33838887 L20.4025,5.88087116 C20.265,5.98667017 20.1966667,6.16048281 20.225,6.33261611 L20.225,17.6682236 C20.1966667,17.8395172 20.265,18.0124902 20.4025,18.1191288 L21.9608333,19.6616111 L21.9608333,20 L14.1191667,20 L14.1191667,19.6616111 L15.7333333,18.0813435 C15.8916667,17.9218053 15.8916667,17.8747835 15.8916667,17.6295985 L15.8916667,8.46790869 L11.4,19.961375 L10.7941667,19.961375 L5.565,8.46790869 L5.565,16.1710837 C5.52166667,16.4951981 5.62833333,16.8209919 5.85416667,17.0552611 L7.95416667,19.6246654 L7.95416667,19.9622146 L2,19.9622146 L2,19.6238258 L4.1,17.0544214 C4.325,16.8209919 4.425,16.4918394 4.37166667,16.1710837 L4.37166667,7.26381527 Z" id="Shape"></path>
                    </g>
                </g>
            </g>
        </g>
    </g>
</svg>