<?xml version="1.0" encoding="UTF-8"?>
<svg width="135px" height="117px" viewBox="0 0 135 117" version="1.1" xmlns="http://www.w3.org/2000/svg" xmlns:xlink="http://www.w3.org/1999/xlink">
    <!-- Generator: sketchtool 50.2 (55047) - http://www.bohemiancoding.com/sketch -->
    <title>3F27C2AA-7093-4053-A66B-48A30F467505</title>
    <desc>Created with sketchtool.</desc>
    <defs></defs>
    <g id="Landing-Page" stroke="none" stroke-width="1" fill="none" fill-rule="evenodd">
        <g id="Landing-Page_UI" transform="translate(-732.000000, -698.000000)" fill-rule="nonzero">
            <g id="advantages" transform="translate(200.000000, 653.000000)">
                <g id="Group-8-Copy" transform="translate(423.000000, 0.000000)">
                    <g id="image_2" transform="translate(109.000000, 45.000000)">
                        <ellipse id="Oval" fill="#25AFF4" cx="14.5748408" cy="98.9596324" rx="3.21592357" ry="3.2175"></ellipse>
                        <ellipse id="Oval" fill="#25AFF4" cx="132.179618" cy="74.3122059" rx="2.68280255" ry="2.68411765"></ellipse>
                        <path d="M39.5541401,2.95080882 C43.0256191,2.95080882 45.8398089,5.7663781 45.8398089,9.23955882 C45.8398089,12.7127395 43.0256191,15.5283088 39.5541401,15.5283088 C36.0826611,15.5283088 33.2684713,12.7127395 33.2684713,9.23955882 C33.2732079,5.7683429 36.0846249,2.95554769 39.5541401,2.95080882 Z M39.5541401,3.82047435e-16 C34.4548949,0.00475023004 30.3245443,4.1435427 30.3277088,9.24528878 C30.3308733,14.3470349 34.4663552,18.4806951 39.5656024,18.4791132 C44.6648496,18.4775313 48.7977685,14.3413059 48.7977707,9.23955882 C48.7977718,6.78758418 47.8236177,4.43616155 46.0898531,2.70316064 C44.3560885,0.970159732 42.0049123,-0.00228303039 39.5541401,3.82047435e-16 Z" id="Shape" fill="#214068"></path>
                        <ellipse id="Oval" fill="#50E0EF" cx="65.5480892" cy="9.02448529" rx="5.51178344" ry="5.51448529"></ellipse>
                        <ellipse id="Oval" fill="#25AFF4" cx="25.7101911" cy="27.9509559" rx="3.06974522" ry="3.07125"></ellipse>
                        <ellipse id="Oval" fill="#50E0EF" cx="125.171656" cy="97.6347794" rx="5.33121019" ry="5.33382353"></ellipse>
                        <ellipse id="Oval" fill="#50E0EF" cx="14.0933121" cy="52.7188235" rx="7.18853503" ry="7.19205882"></ellipse>
                        <ellipse id="Oval" fill="#50E0EF" cx="101.636943" cy="26.8153676" rx="13.594586" ry="13.60125"></ellipse>
                        <path d="M125.541401,36.8894118 C126.624161,36.8894118 127.501911,37.7675921 127.501911,38.8508824 C127.501911,39.9341726 126.624161,40.8123529 125.541401,40.8123529 C124.458642,40.8123529 123.580892,39.9341726 123.580892,38.8508824 C123.580892,37.7675921 124.458642,36.8894118 125.541401,36.8894118 Z M125.541401,34.9193382 C123.951241,34.915857 122.515723,35.8715366 121.904783,37.3403749 C121.293842,38.8092133 121.627918,40.5016496 122.751101,41.6278479 C123.874285,42.7540461 125.565156,43.0919921 127.034609,42.4839713 C128.504063,41.8759505 129.462417,40.4418256 129.46242,38.8508824 C129.464704,37.8089639 129.052606,36.8089369 128.317025,36.071381 C127.581444,35.3338251 126.582812,34.9193357 125.541401,34.9193382 Z" id="Shape" fill="#214068"></path>
                        <path d="M69.3745223,61.4594118 C58.4369427,61.4594118 48.9009554,68.1094853 43.733121,77.9856618 L53.5098726,87.75 C55.7626652,89.9841398 57.0051837,93.0422336 56.9493631,96.2152941 L56.9493631,108.07875 L58.4369427,108.07875 C59.2537613,108.07875 59.9159236,108.741237 59.9159236,109.558456 L59.9159236,115.494485 C59.9405606,116.286297 59.3305856,116.953784 58.5401274,117 L79.022293,117 C78.2998516,116.898216 77.7595203,116.284566 77.7496815,115.554706 L77.7496815,109.618676 C77.7496815,108.801457 78.4118438,108.138971 79.2286624,108.138971 L80.716242,108.138971 L80.716242,96.2325 C80.6483775,93.0605448 81.8747542,89.9977595 84.1127389,87.75 L94.4914013,77.4264706 L94.6289809,77.3146324 C89.3751592,67.7911765 80.0455414,61.4594118 69.3745223,61.4594118 Z" id="Shape" fill="#50E0EF"></path>
                        <g id="leaves" transform="translate(42.993631, 31.830882)" fill="#25AFF4">
                            <path d="M29.0636943,21.1460294 C28.3925934,19.7533315 27.8179902,18.3161193 27.343949,16.8445588 C26.5870916,13.9115228 27.0470142,10.7969544 28.6192656,8.20819092 C30.191517,5.61942744 32.7426591,3.77617911 35.6933121,3.09705882 C40.1990446,2.12492647 44.7735669,1.47970588 49.3136943,0.688235294 C50.3283439,0.507573529 51.3429936,0.344117647 52.5038217,0.154852941 C52.3232484,1.27323529 52.1684713,2.33139706 51.9792994,3.38955882 C51.1882166,7.95772059 50.5433121,12.5688971 49.5458599,17.0940441 C47.8949045,24.5269853 38.9522293,28.08 32.5117834,23.9763971 L31.4541401,23.3225735 M21.3248408,23.3225735 C20.3359873,23.8301471 19.4503185,24.3549265 18.5130573,24.7678676 C12.2187898,27.5208088 4.57452229,23.7527206 3.12133758,17.0252206 C2.13248408,12.4914706 1.48757962,7.88029412 0.687898089,3.31213235 C0.515923567,2.29698529 0.352547771,1.28183824 0.15477707,0.120441176 L3.30191083,0.636617647 C7.85063694,1.42808824 12.4251592,2.0475 16.922293,3.04544118 C20.5468026,3.90004992 23.524471,6.47407984 24.8956284,9.93794942 C26.2667858,13.401819 25.8580955,17.3176385 23.8012739,20.4233824 L23.3799363,21.0686029" id="Shape"></path>
                        </g>
                        <path d="M70.6987261,62.3885294 L70.6987261,89.1522794 L67.7149682,89.1522794 L67.7149682,59.085 C67.5993037,58.8072043 67.4459523,58.5466686 67.2592357,58.3107353 C66.2531847,57.2525735 65.2213376,56.2202206 64.2152866,55.1964706 L61.9882166,52.9511029 L56.072293,47.1183088 L58.2821656,44.8729412 L64.1035032,50.8003676 L66.2961783,52.9425 L69.1595541,55.7986765 L71.9541401,52.9769118 L74.3617834,50.8777941 L80.1229299,45.0794118 L82.4617834,47.1785294 L76.5802548,53.0371324 L74.344586,55.1706618 C73.1923567,56.3234559 72.0487261,57.4504412 70.9050955,58.6118382 C70.7912325,58.758701 70.7360608,58.9426969 70.7503185,59.1280147 L70.6987261,62.3885294 Z" id="Shape" fill="#214068"></path>
                        <path d="M59.8729299,117 L59.8729299,109.584265 C59.8729299,108.767046 59.2107676,108.104559 58.393949,108.104559 L56.9063694,108.104559 L56.9063694,96.2325 C56.9621901,93.0594395 55.7196716,90.0013457 53.466879,87.7672059 L43.1312102,77.4264706 C42.065082,76.3262192 40.6198127,75.6739909 39.0898089,75.6026471 C37.5347091,75.5519868 36.0279425,76.1472172 34.926924,77.2471459 C33.8259056,78.3470745 33.2287368,79.8536969 33.2770701,81.4096324 C33.3506606,82.9415967 34.0057209,84.3877433 35.1085987,85.4530147 L42.5207006,92.86875 C42.8939522,93.2437213 43.4387975,93.3909841 43.9499988,93.2550659 C44.4612001,93.1191478 44.8610937,92.720698 44.9990434,92.2098086 C45.1369932,91.6989192 44.9920413,91.1532065 44.6187898,90.7782353 L37.1980892,83.3538971 C36.6296723,82.8117136 36.2884816,82.0736425 36.2436306,81.2891912 C36.2294607,80.5616572 36.5120894,79.859733 37.0263792,79.3451911 C37.5406689,78.8306493 38.2422493,78.547882 38.9694268,78.5620588 C39.7542777,78.610903 40.4915662,78.9551396 41.033121,79.5255882 L51.4805732,89.9695588 C53.1217565,91.6511135 54.0120767,93.9261122 53.9484076,96.2755147 L53.9484076,108.138971 L43.0452229,108.138971 C43.0452229,106.90875 43.1398089,102.676103 41.6522293,101.161985 L29.7085987,89.1694853 C28.0582623,87.5020854 27.1711961,85.2257231 27.2579618,82.8807353 L27.2579618,60.6335294 C27.2579618,58.9943402 28.5861362,57.6655147 30.2245223,57.6655147 C31.8629084,57.6655147 33.1910828,58.9943402 33.1910828,60.6335294 L33.1910828,72.3765441 C33.2501697,73.1524056 33.896634,73.7517807 34.6743631,73.7517807 C35.4520921,73.7517807 36.0985564,73.1524056 36.1576433,72.3765441 L36.1576433,60.6335294 C36.1576433,57.3551509 33.5012946,54.6975 30.2245223,54.6975 C26.94775,54.6975 24.2914013,57.3551509 24.2914013,60.6335294 L24.2914013,82.8807353 C24.2130244,86.0579602 25.4590362,89.1246518 27.7308917,91.3460294 L39.0468153,102.6675 C39.9840764,103.751471 40.0700637,104.043971 40.1474522,108.095956 L34.6700637,108.095956 C33.8532451,108.095956 33.1910828,108.758443 33.1910828,109.575662 L33.1910828,117 L36.1576433,117 L36.1576433,111.063971 L56.9063694,111.063971 L56.9063694,117 L59.8729299,117 Z" id="Shape" fill="#214068"></path>
                        <path d="M104.362739,117 L104.362739,109.584265 C104.362746,109.190327 104.205745,108.812649 103.92652,108.534901 C103.647294,108.257154 103.268897,108.102268 102.875159,108.104559 L97.4407643,108.104559 C97.5181529,104.052574 97.6041401,103.760074 98.5414013,102.676103 L109.857325,91.3546324 C112.128299,89.1326626 113.374148,86.0663722 113.296815,82.8893382 L113.296815,60.6335294 C113.379548,58.4604471 112.267964,56.4160571 110.399521,55.304916 C108.531077,54.1937749 106.20491,54.1937749 104.336467,55.304916 C102.468024,56.4160571 101.35644,58.4604471 101.439172,60.6335294 L101.439172,72.3765441 C101.498259,73.1524056 102.144723,73.7517807 102.922452,73.7517807 C103.700181,73.7517807 104.346646,73.1524056 104.405732,72.3765441 L104.405732,60.6335294 C104.34664,59.5365957 104.897965,58.4967151 105.838844,57.9304665 C106.779723,57.3642179 107.956265,57.3642179 108.897144,57.9304665 C109.838023,58.4967151 110.389347,59.5365957 110.330255,60.6335294 L110.330255,82.8807353 C110.413122,85.223415 109.530155,87.4972362 107.888217,89.1694853 L95.944586,101.118971 C94.4570064,102.633088 94.5,106.865735 94.5515924,108.095956 L83.605414,108.095956 L83.605414,96.2325 C83.5404458,93.8845128 84.4274514,91.6100589 86.0646497,89.9265441 L96.5121019,79.4825735 C97.054665,78.913528 97.7913724,78.5695627 98.5757962,78.5190441 C99.3044492,78.5024919 100.008287,78.7842096 100.524466,79.2990179 C101.040645,79.8138262 101.32444,80.5171177 101.310191,81.2461765 C101.258045,82.0305609 100.914514,82.7670585 100.347134,83.3108824 L92.9350318,90.7352206 C92.358035,91.3148759 92.3599599,92.2527571 92.9393312,92.8300368 C93.5187025,93.4073165 94.4561242,93.4053906 95.033121,92.8257353 L102.445223,85.41 C103.539934,84.3398419 104.190906,82.8959419 104.268153,81.3666176 C104.321627,79.809216 103.726111,78.2995649 102.623937,77.198482 C101.521763,76.097399 100.011972,75.5038265 98.455414,75.5596324 C96.9208274,75.6483501 95.4768019,76.3153865 94.4140127,77.4264706 L84.0353503,87.75 C81.7859515,89.9864016 80.5440478,93.0429824 80.5958599,96.2152941 L80.5958599,108.07875 L79.1598726,108.07875 C78.7661348,108.07646 78.3877374,108.231345 78.1085121,108.509092 C77.8292869,108.78684 77.6722863,109.164518 77.672293,109.558456 L77.672293,117 L80.6388535,117 L80.6388535,111.063971 L101.396178,111.063971 L101.396178,117 L104.362739,117 Z" id="Shape" fill="#214068"></path>
                        <rect id="Rectangle-path" fill="#25AFF4" x="80.6818471" y="111.063971" width="20.7573248" height="5.92742647"></rect>
                        <rect id="Rectangle-path" fill="#25AFF4" x="36.1576433" y="111.063971" width="20.7573248" height="5.92742647"></rect>
                        <path d="M89.538535,32.9836765 C90.6605443,35.1816134 92.3574098,37.0339172 94.4484076,38.3433088 C94.6203822,37.3023529 94.7923567,36.2527941 94.9729299,35.2204412 C95.1535032,34.1880882 95.316879,33.1041176 95.4974522,31.9857353 C94.3366242,32.175 93.3219745,32.3384559 92.3073248,32.5191176 L89.538535,32.9836765 Z" id="Shape" fill="#006C96"></path>
                        <path d="M4.78949045,77.9426471 C5.87224997,77.9426471 6.75,78.8208274 6.75,79.9041176 C6.75,80.9874079 5.87224997,81.8655882 4.78949045,81.8655882 C3.70673092,81.8655882 2.82898089,80.9874079 2.82898089,79.9041176 C2.82898089,78.8208274 3.70673092,77.9426471 4.78949045,77.9426471 Z M4.78949045,75.9725735 C3.19933053,75.9690923 1.76381237,76.9247719 1.15287197,78.3936102 C0.541931568,79.8624486 0.876007213,81.5548849 1.99919053,82.6810831 C3.12237385,83.8072814 4.81324508,84.1452274 6.28269857,83.5372066 C7.75215205,82.9291858 8.71050575,81.4950609 8.71050955,79.9041176 C8.71051474,77.736141 6.95639968,75.9773175 4.78949045,75.9725735 Z" id="Shape" fill="#214068"></path>
                    </g>
                </g>
            </g>
        </g>
    </g>
</svg>