<?xml version="1.0" encoding="UTF-8"?>
<svg width="24px" height="24px" viewBox="0 0 24 24" version="1.1" xmlns="http://www.w3.org/2000/svg" xmlns:xlink="http://www.w3.org/1999/xlink">
    <!-- Generator: sketchtool 50.2 (55047) - http://www.bohemiancoding.com/sketch -->
    <title>BB43DEE3-3A67-4F02-B19B-C57E1607DACA</title>
    <desc>Created with sketchtool.</desc>
    <defs></defs>
    <g id="Landing-Page" stroke="none" stroke-width="1" fill="none" fill-rule="evenodd">
        <g id="Landing-Page_UI" transform="translate(-833.000000, -5486.000000)" fill="#0086E6" fill-rule="nonzero">
            <g id="Group-25" transform="translate(833.000000, 5352.000000)">
                <g id="Group-22" transform="translate(0.000000, 134.000000)">
                    <g id="envelope-(1)">
                        <g id="paper" transform="translate(2.000000, 0.000000)">
                            <path d="M18.2570297,0 L5.01742574,0 C4.0749505,0 3.3079703,0.76691134 3.3079703,1.70875052 L3.3079703,2.80003299 L1.75178218,2.80003299 C0.809306931,2.80003299 0.0423762376,3.56694433 0.0423762376,4.50878351 L0.0423762376,22.2506227 C0.0423762376,23.1924619 0.809306931,23.9593732 1.75178218,23.9593732 L14.9918317,23.9593732 C15.9343564,23.9593732 16.7012871,23.1924619 16.7012871,22.2506227 L16.7012871,21.1593402 L18.2570297,21.1593402 C19.1996535,21.1593402 19.9664851,20.3924289 19.9664851,19.4506392 L19.9664851,1.70875052 C19.9664851,0.76691134 19.1996535,0 18.2570297,0 Z M15.3338119,22.2506227 C15.3338119,22.4388619 15.180099,22.5924124 14.9918317,22.5924124 L1.75178218,22.5924124 C1.56356436,22.5924124 1.40985149,22.4388124 1.40985149,22.2506227 L1.40985149,4.50878351 C1.40985149,4.32039588 1.56356436,4.16699381 1.75178218,4.16699381 L3.3079703,4.16699381 L3.3079703,19.4505897 C3.3079703,20.3923794 4.0749505,21.1592907 5.01742574,21.1592907 L15.3338119,21.1592907 L15.3338119,22.2506227 Z M18.5990099,19.4506392 C18.5990099,19.6388289 18.4456436,19.7924289 18.2570297,19.7924289 L5.01742574,19.7924289 C4.82876238,19.7924289 4.67554455,19.6388289 4.67554455,19.4506392 L4.67554455,1.70875052 C4.67554455,1.52041237 4.82881188,1.36696082 5.01742574,1.36696082 L18.2569802,1.36696082 C18.4456436,1.36696082 18.5989604,1.52046186 18.5989604,1.70875052 L18.5989604,19.4506392 L18.5990099,19.4506392 Z" id="Shape"></path>
                            <path d="M16.6514851,4.24508041 L6.6230198,4.24508041 C6.24539604,4.24508041 5.93920792,4.55138969 5.93920792,4.92851134 C5.93920792,5.30637526 6.24544554,5.61204124 6.6230198,5.61204124 L16.6513861,5.61204124 C17.0290594,5.61204124 17.3351485,5.30632577 17.3351485,4.92851134 C17.3352475,4.55143918 17.0290594,4.24508041 16.6514851,4.24508041 Z" id="Shape"></path>
                            <path d="M16.6514851,7.49834227 L6.6230198,7.49834227 C6.24539604,7.49834227 5.93920792,7.80455258 5.93920792,8.1817732 C5.93920792,8.55953814 6.24544554,8.86530309 6.6230198,8.86530309 L16.6513861,8.86530309 C17.0290594,8.86530309 17.3351485,8.55948866 17.3351485,8.1817732 C17.3352475,7.80460206 17.0290594,7.49834227 16.6514851,7.49834227 Z" id="Shape"></path>
                            <path d="M16.6514851,10.7515052 L6.6230198,10.7515052 C6.24539604,10.7515052 5.93920792,11.0578639 5.93920792,11.4350845 C5.93920792,11.8128 6.24544554,12.1185155 6.6230198,12.1185155 L16.6513861,12.1185155 C17.0290594,12.1185155 17.3351485,11.8128 17.3351485,11.4350845 C17.3352475,11.0578639 17.0290594,10.7515052 16.6514851,10.7515052 Z" id="Shape"></path>
                            <path d="M16.6514851,14.0048165 L6.6230198,14.0048165 C6.24539604,14.0048165 5.93920792,14.3111753 5.93920792,14.6882474 C5.93920792,15.0662103 6.24544554,15.3717773 6.6230198,15.3717773 L16.6513861,15.3717773 C17.0290594,15.3717773 17.3351485,15.0661113 17.3351485,14.6882474 C17.3352475,14.3111753 17.0290594,14.0048165 16.6514851,14.0048165 Z" id="Shape"></path>
                        </g>
                    </g>
                </g>
            </g>
        </g>
    </g>
</svg>