<?xml version="1.0" encoding="UTF-8"?>
<svg width="143px" height="117px" viewBox="0 0 143 117" version="1.1" xmlns="http://www.w3.org/2000/svg" xmlns:xlink="http://www.w3.org/1999/xlink">
    <!-- Generator: sketchtool 50.2 (55047) - http://www.bohemiancoding.com/sketch -->
    <title>F8278DDD-4FFB-4649-BD83-0A38E80C349F</title>
    <desc>Created with sketchtool.</desc>
    <defs></defs>
    <g id="Landing-Page" stroke="none" stroke-width="1" fill="none" fill-rule="evenodd">
        <g id="Landing-Page_UI" transform="translate(-305.000000, -698.000000)" fill-rule="nonzero">
            <g id="advantages" transform="translate(200.000000, 653.000000)">
                <g id="Group-8">
                    <g id="image_1" transform="translate(105.000000, 45.000000)">
                        <path d="M8.75982036,67.7481618 C11.4223289,67.7481618 13.5807186,69.9166508 13.5807186,72.5916176 C13.5807186,75.2665845 11.4223289,77.4350735 8.75982036,77.4350735 C6.0973118,77.4350735 3.93892216,75.2665845 3.93892216,72.5916176 C3.93892216,69.9166508 6.0973118,67.7481618 8.75982036,67.7481618 Z M8.75982036,65.0468382 C4.61236031,65.0468382 1.25017964,68.424751 1.25017964,72.5916176 C1.25017964,76.7584843 4.61236031,80.1363971 8.75982036,80.1363971 C12.9072804,80.1363971 16.2694611,76.7584843 16.2694611,72.5916176 C16.2694638,68.4281084 12.9124989,65.0515857 8.76838323,65.0468382 L8.75982036,65.0468382 Z" id="Shape" fill="#214068"></path>
                        <ellipse id="Oval" fill="#25AFF4" cx="33.3352695" cy="11.1063971" rx="11.0461078" ry="11.0977941"></ellipse>
                        <ellipse id="Oval" fill="#50E0EF" cx="55.0250299" cy="8.00933824" rx="2.67161677" ry="2.68411765"></ellipse>
                        <path d="M113.278263,5.16176471 C115.810756,5.15828407 118.095809,6.68828005 119.067353,9.03794723 C120.038897,11.3876144 119.50548,14.0939277 117.715962,15.8942819 C115.926444,17.694636 113.233468,18.2342534 110.893416,17.2613806 C108.553365,16.2885078 107.027368,13.994859 107.027365,11.4505147 C107.032068,7.98264919 109.826559,5.17123654 113.278263,5.16176471 Z M113.278263,2.20235294 C109.548955,2.18843726 106.179788,4.43656303 104.746238,7.89547201 C103.312687,11.354381 104.098056,15.340512 106.735094,17.9898888 C109.372132,20.6392656 113.339698,21.4283095 116.782498,19.9880513 C120.225297,18.5477932 122.462953,15.1628617 122.449102,11.4161029 C122.453845,6.31994012 118.350674,2.18217405 113.278263,2.16794118 L113.278263,2.20235294 Z" id="Shape" fill="#214068"></path>
                        <ellipse id="Oval" fill="#25AFF4" cx="121.841138" cy="109.532647" rx="3.05694611" ry="3.07125"></ellipse>
                        <ellipse id="Oval" fill="#50E0EF" cx="117.559701" cy="35.9258824" rx="3.05694611" ry="3.07125"></ellipse>
                        <ellipse id="Oval" fill="#50E0EF" cx="20.8420359" cy="36.3130147" rx="5.30898204" ry="5.33382353"></ellipse>
                        <ellipse id="Oval" fill="#25AFF4" cx="85.1320958" cy="12.2677941" rx="5.30898204" ry="5.33382353"></ellipse>
                        <ellipse id="Oval" fill="#50E0EF" cx="130.69515" cy="72.8669118" rx="7.20994012" ry="7.24367647"></ellipse>
                        <path d="M138.256168,93.1440441 C139.334413,93.1440441 140.208503,94.0222244 140.208503,95.1055147 C140.208503,96.188805 139.334413,97.0669853 138.256168,97.0669853 C137.177923,97.0669853 136.303832,96.188805 136.303832,95.1055147 C136.303832,94.0222244 137.177923,93.1440441 138.256168,93.1440441 Z M138.256168,91.1739706 C136.094948,91.1739706 134.342934,92.9341828 134.342934,95.1055147 C134.342934,97.2768466 136.094948,99.0370588 138.256168,99.0370588 C140.417387,99.0370588 142.169401,97.2768466 142.169401,95.1055147 C142.169401,92.9341828 140.417387,91.1739706 138.256168,91.1739706 Z" id="Shape" fill="#214068"></path>
                        <path d="M19.7973653,107.485147 C20.6216448,107.485147 21.3647604,107.984004 21.6801986,108.749103 C21.9956367,109.514201 21.8212771,110.394867 21.2384235,110.980448 C20.6555698,111.566029 19.7790052,111.741204 19.0174702,111.42429 C18.2559352,111.107376 17.7594012,110.360784 17.7594012,109.532647 C17.7594012,108.401844 18.6718288,107.485147 19.7973653,107.485147 Z M19.7973653,105.429044 C17.5415632,105.429044 15.7128743,107.26629 15.7128743,109.532647 C15.7128743,111.799004 17.5415632,113.63625 19.7973653,113.63625 C22.0531674,113.63625 23.8818563,111.799004 23.8818563,109.532647 C23.877146,107.268253 22.0512134,105.433776 19.7973653,105.429044 Z" id="Shape" fill="#214068"></path>
                        <ellipse id="Oval" fill="#50E0EF" cx="3.90467066" cy="97.0669853" rx="3.90467066" ry="3.92294118"></ellipse>
                        <path d="M59.2979042,116.217132 C59.2979042,114.978309 59.2465269,113.739485 59.2465269,112.500662 C59.2465269,107.665809 59.2465269,102.836691 59.2465269,98.0133088 L59.2465269,96.9895588 L67.415509,96.9895588 L67.415509,72.9013235 L70.1641916,72.9013235 L70.1641916,96.9895588 L78.2903593,96.9895588 C78.2903593,97.2992647 78.3588623,97.5229412 78.3588623,97.7466176 L78.3588623,115.812794 C78.3588623,115.950441 78.3588623,116.096691 78.3588623,116.234338 L59.2979042,116.217132 Z M62.0465868,113.395368 L75.5502395,113.395368 L75.5502395,99.7941176 L62.0465868,99.7941176 L62.0465868,113.395368 Z" id="Shape" fill="#214068"></path>
                        <path d="M29.8073653,80.5923529 L48.8597605,80.5923529 L48.8597605,88.7221324 L56.6434132,88.7221324 L56.6434132,75.5854412 L55.6586826,75.5854412 C52.2335329,75.5854412 48.7484431,75.5854412 45.2976048,75.5854412 C37.3625753,75.4450817 30.8307085,69.2740595 30.2039041,61.3255725 C29.5770996,53.3770856 35.0602753,46.2496895 42.8743114,44.8557353 C43.5825703,44.7454266 44.2983128,44.6907756 45.0150299,44.6922794 C45.5801796,44.6922794 45.7942515,44.4944118 45.9740719,43.9782353 C48.2000829,36.9107526 53.5848265,31.2939623 60.5309581,28.7940441 C72.0308982,24.3807353 85.7143713,30.1705147 90.6037725,41.5263971 C90.9465471,42.2839911 91.2327656,43.0661483 91.4600599,43.8663971 C91.6313174,44.5460294 91.9652695,44.6750735 92.5989222,44.7266912 C98.67,44.9417647 103.285389,47.7119118 106.025509,53.1317647 C111.308802,63.5671324 103.936168,75.4994118 92.2135928,75.61125 C88.728503,75.61125 85.251976,75.61125 81.7668862,75.61125 L80.9534132,75.61125 L80.9534132,88.7307353 L88.66,88.7307353 L88.66,80.6439706 L107.81515,80.6439706 L107.81515,99.7080882 L88.7370659,99.7080882 L88.7370659,91.6213235 L78.2047305,91.6213235 L78.2047305,72.8152941 L79.1466467,72.8152941 C83.5479641,72.8152941 87.9578443,72.8152941 92.3591617,72.8152941 C99.3251921,72.7915378 104.953107,67.0987725 104.929461,60.1001471 C104.905815,53.1015216 99.2395633,47.447273 92.2735329,47.4710294 C91.4686228,47.4710294 90.6637126,47.5742647 89.884491,47.6258824 C86.6220359,36.1323529 79.3264671,29.7575735 67.1843114,30.2393382 C58.4159281,30.5834559 50.0585629,36.9926471 47.8322156,47.6258824 C47.0786826,47.5742647 46.3165868,47.4968382 45.5459281,47.4710294 C38.8186052,47.22645 33.0888778,52.3394831 32.5368525,59.0799297 C31.9848272,65.8203763 36.8056379,71.8055765 43.4822754,72.6690441 C44.2236051,72.7622933 44.9700699,72.8082677 45.7171856,72.8066912 C49.9472455,72.8066912 54.1773054,72.8066912 58.4159281,72.8066912 L59.4092216,72.8066912 L59.4092216,91.5094853 L48.9197006,91.5094853 L48.9197006,99.6908824 L29.8073653,99.6908824 L29.8073653,80.5923529 Z M91.5371257,91.5438971 L91.5371257,96.9207353 L105.023653,96.9207353 L105.023653,83.3883088 L91.52,83.3883088 L91.52,88.8081618 L91.52,91.5438971 L91.5371257,91.5438971 Z M32.5389222,96.9293382 L46.0853892,96.9293382 L46.0853892,91.5266912 L46.0853892,88.7479412 L46.0853892,83.3711029 L32.5389222,83.3711029 L32.5389222,96.9293382 Z" id="Shape" fill="#214068"></path>
                        <path d="M43.9018563,69.2794853 L93.1383832,69.3827206 C94.0029949,69.3881039 94.8547012,69.1719603 95.6130539,68.7547059 C98.3189222,67.2836029 103.910479,63.0853676 99.9801198,55.0416176 C98.8669461,52.7618382 94.4913174,49.0711765 86.9217365,51.3681618 C85.8856287,46.1633824 82.6402994,33.3794118 68.5115569,33.4568382 C54.3828144,33.5342647 50.9919162,47.5828676 50.2298204,51.1788971 C47.7123353,51.1788971 37.6766467,48.3313235 35.75,58.7236765 C35.2191018,61.5884559 36.3579641,68.7461029 43.9018563,69.2794853 Z" id="Shape" fill="#50E0EF"></path>
                        <path d="M76.338024,61.4163971 L76.338024,54.6630882 C76.3379898,53.6710391 75.6439719,52.8156311 74.6768263,52.6155882 L74.6768263,49.5615441 C74.5563156,46.3921387 71.9639214,43.8852102 68.806976,43.8852102 C65.6500307,43.8852102 63.0576365,46.3921387 62.9371257,49.5615441 L62.9371257,52.6155882 C61.9733843,52.8191727 61.2836819,53.6736663 61.284491,54.6630882 L61.284491,61.4163971 C61.284491,61.970836 61.5037153,62.5025666 61.8939369,62.8946142 C62.2841586,63.2866617 62.8134127,63.5069118 63.3652695,63.5069118 L74.2486826,63.5069118 C74.8020215,63.5091996 75.3334781,63.2899599 75.7255537,62.8976641 C76.1176293,62.5053683 76.3380286,61.9723298 76.338024,61.4163971 Z M69.727485,59.1710294 L69.727485,61.2357353 L67.8864671,61.2357353 L67.8864671,59.1710294 C67.1595787,58.7519932 66.8039586,57.8942967 67.0197805,57.0807254 C67.2356023,56.2671541 67.968927,55.7010393 68.806976,55.7010393 C69.6450251,55.7010393 70.3783498,56.2671541 70.5941716,57.0807254 C70.8099935,57.8942967 70.4543734,58.7519932 69.727485,59.1710294 Z M71.6198802,52.5725735 L66.0026347,52.5725735 L66.0026347,49.5615441 C66.0026347,48.0031265 67.260098,46.7397794 68.8112575,46.7397794 C70.362417,46.7397794 71.6198802,48.0031265 71.6198802,49.5615441 L71.6198802,52.5725735 Z" id="Shape" fill="#214068"></path>
                        <rect id="Rectangle-path" fill="#25AFF4" x="34.3799401" y="85.1519118" width="9.75311377" height="9.79875"></rect>
                        <rect id="Rectangle-path" fill="#25AFF4" x="63.8105389" y="101.841618" width="9.75311377" height="9.79875"></rect>
                        <rect id="Rectangle-path" fill="#25AFF4" x="93.2753892" y="85.3067647" width="9.75311377" height="9.79875"></rect>
                    </g>
                </g>
            </g>
        </g>
    </g>
</svg>