<?xml version="1.0" encoding="UTF-8"?>
<svg width="24px" height="24px" viewBox="0 0 24 24" version="1.1" xmlns="http://www.w3.org/2000/svg" xmlns:xlink="http://www.w3.org/1999/xlink">
    <!-- Generator: sketchtool 50.2 (55047) - http://www.bohemiancoding.com/sketch -->
    <title>2B2B5F2A-C251-40FE-B410-E5E7E9F771FB</title>
    <desc>Created with sketchtool.</desc>
    <defs></defs>
    <g id="Landing-Page" stroke="none" stroke-width="1" fill="none" fill-rule="evenodd">
        <g id="Landing-Page_UI" transform="translate(-833.000000, -5440.000000)" fill="#0086E6" fill-rule="nonzero">
            <g id="Group-25" transform="translate(833.000000, 5352.000000)">
                <g id="Group-24" transform="translate(0.000000, 88.000000)">
                    <g id="envelope-(1)">
                        <g id="telegram" transform="translate(0.000000, 2.000000)">
                            <path d="M23.982439,1.75294118 C23.8126829,2.45294118 23.6370732,3.14705882 23.4731707,3.84705882 C22.2907317,8.89411765 21.1141463,13.9411765 19.9317073,18.9823529 C19.8673171,19.2588235 19.8087805,19.5352941 19.7385366,19.8058824 C19.4517073,20.9117647 18.275122,21.3176471 17.3853659,20.6058824 C16.4429268,19.8529412 15.5239024,19.0823529 14.5931707,18.3176471 C14.0721951,17.8882353 13.5512195,17.4705882 13.0360976,17.0352941 C12.9131707,16.9294118 12.8370732,16.9470588 12.72,17.0352941 C11.4907317,17.9647059 10.2614634,18.8882353 9.02634146,19.8117647 C8.88,19.9235294 8.71609756,20.0294118 8.54634146,20.0882353 C8.17170732,20.2117647 7.80878049,19.9882353 7.69170732,19.5352941 C7.54536585,18.9647059 7.43414634,18.3882353 7.31121951,17.8176471 C6.91902439,15.9823529 6.52097561,14.1411765 6.13463415,12.3058824 C6.10536585,12.1588235 6.02341463,12.0882353 5.89463415,12.0294118 C4.24390244,11.3058824 2.59317073,10.5823529 0.948292683,9.85294118 C0.122926829,9.48823529 -0.216585366,8.62941176 0.15804878,7.85294118 C0.351219512,7.45294118 0.673170732,7.21764706 1.08292683,7.08235294 C2.13658537,6.73529412 3.18439024,6.38823529 4.23219512,6.04117647 C10.1268293,4.08235294 16.0214634,2.12941176 21.9219512,0.170588235 C22.8936585,-0.152941176 23.6253659,0.211764706 23.9531707,1.2 C23.9590244,1.21176471 23.9765854,1.22352941 23.982439,1.22941176 C23.982439,1.40588235 23.982439,1.58235294 23.982439,1.75294118 Z M1.35804878,8.47647059 C1.50439024,8.54705882 1.57463415,8.58235294 1.65073171,8.61764706 C3.23707317,9.31764706 4.82341463,10.0058824 6.40390244,10.7117647 C6.58536585,10.7941176 6.72585366,10.7882353 6.90146341,10.6882353 C10.3843902,8.73529412 13.8790244,6.78823529 17.3678049,4.84117647 C17.4790244,4.78235294 17.5902439,4.72352941 17.7073171,4.68235294 C17.9941463,4.58823529 18.3043902,4.69411765 18.48,4.93529412 C18.6497561,5.17058824 18.6614634,5.48235294 18.497561,5.72941176 C18.4214634,5.84117647 18.3336585,5.93529412 18.24,6.03529412 C15.9102439,8.48235294 13.5804878,10.9352941 11.2507317,13.3823529 C11.1863415,13.4470588 11.1336585,13.5176471 11.0692683,13.5882353 C13.5043902,15.5882353 15.9160976,17.5705882 18.3512195,19.5764706 C19.7678049,13.5176471 21.1726829,7.51176471 22.595122,1.44705882 C15.5004878,3.79411765 8.46439024,6.12352941 1.35804878,8.47647059 Z M7.49268293,11.9705882 C7.81463415,13.4588235 8.13073171,14.9294118 8.44682927,16.4 C8.51121951,16.3352941 8.53463415,16.2764706 8.55219512,16.2117647 C8.79219512,15.3705882 9.03804878,14.5294118 9.26634146,13.6823529 C9.34243902,13.4117647 9.47121951,13.1823529 9.66439024,12.9823529 C11.075122,11.5058824 12.48,10.0294118 13.884878,8.55294118 C13.937561,8.49411765 13.9902439,8.43529412 14.0429268,8.37058824 C14.0312195,8.35882353 14.0253659,8.34705882 14.0136585,8.33529412 C11.8478049,9.54117647 9.68195122,10.7529412 7.49268293,11.9705882 Z M11.7541463,15.9882353 C11.297561,15.6117647 10.8585366,15.2529412 10.3960976,14.8705882 C10.1385366,15.7764706 9.89268293,16.6529412 9.62926829,17.5823529 C10.3609756,17.0352941 11.0458537,16.5235294 11.7541463,15.9882353 Z" id="Shape"></path>
                        </g>
                    </g>
                </g>
            </g>
        </g>
    </g>
</svg>