<?xml version="1.0" encoding="UTF-8"?>
<svg width="40px" height="40px" viewBox="0 0 40 40" version="1.1" xmlns="http://www.w3.org/2000/svg" xmlns:xlink="http://www.w3.org/1999/xlink">
    <!-- Generator: sketchtool 50.2 (55047) - http://www.bohemiancoding.com/sketch -->
    <title>5B0352ED-335B-433B-8BBA-53E769D1252C</title>
    <desc>Created with sketchtool.</desc>
    <defs></defs>
    <g id="Landing-Page" stroke="none" stroke-width="1" fill="none" fill-rule="evenodd">
        <g id="Landing-Page_UI" transform="translate(-1037.000000, -332.000000)" fill="#0086E6" fill-rule="nonzero">
            <g id="first-screen" transform="translate(192.000000, -521.000000)">
                <g id="socials" transform="translate(665.000000, 717.000000)">
                    <g id="Group-4" transform="translate(155.000000, 111.000000)">
                        <g id="twitter-logo-silhouette" transform="translate(25.000000, 25.000000)">
                            <path d="M40,7.92673494 C38.5277778,8.58812651 36.9481046,9.0366747 35.288366,9.23692771 C36.9830719,8.20803012 38.2803268,6.57605422 38.8951634,4.63740361 C37.3054902,5.59022892 35.5507843,6.28210241 33.6811111,6.65716265 C32.1839216,5.03784337 30.0543137,4.02922289 27.6922222,4.02922289 C23.1605882,4.02922289 19.4862745,7.75444578 19.4862745,12.3463494 C19.4862745,12.9976024 19.5587582,13.6336807 19.6987582,14.2419277 C12.8800654,13.8946988 6.83372549,10.5825723 2.78699346,5.5496747 C2.07960784,6.77624096 1.67718954,8.20544578 1.67718954,9.73106627 C1.67718954,12.617506 3.1269281,15.1643373 5.32653595,16.6543735 C3.98176471,16.6087831 2.71699346,16.2337229 1.60973856,15.6103012 L1.60973856,15.7142048 C1.60973856,19.7435181 4.43921569,23.1063373 8.19098039,23.8716988 C7.50359477,24.0592289 6.77875817,24.1631325 6.02888889,24.1631325 C5.49901961,24.1631325 4.98660131,24.1099217 4.48418301,24.0085361 C5.52895425,27.3156265 8.55843137,29.7205181 12.1477778,29.7864518 C9.34078431,32.0165361 5.80143791,33.3419036 1.95718954,33.3419036 C1.2948366,33.3419036 0.642418301,33.3013494 6.53594771e-05,33.2278614 C3.63189542,35.5922651 7.94359477,36.9708434 12.5777124,36.9708434 C27.6723529,36.9708434 35.9233333,24.2949337 35.9233333,13.301759 L35.895817,12.224753 C37.5079739,11.0589518 38.9026797,9.59422892 40,7.92673494 Z" id="Shape"></path>
                        </g>
                    </g>
                </g>
            </g>
        </g>
    </g>
</svg>